<?xml version="1.0" encoding="UTF-8" standalone="no"?>
<!-- Created with Inkscape (http://www.inkscape.org/) -->

<svg
   xmlns:dc="http://purl.org/dc/elements/1.1/"
   xmlns:cc="http://creativecommons.org/ns#"
   xmlns:rdf="http://www.w3.org/1999/02/22-rdf-syntax-ns#"
   xmlns:svg="http://www.w3.org/2000/svg"
   xmlns="http://www.w3.org/2000/svg"
   xmlns:sodipodi="http://sodipodi.sourceforge.net/DTD/sodipodi-0.dtd"
   xmlns:inkscape="http://www.inkscape.org/namespaces/inkscape"
   width="57.233749"
   height="57.111252"
   viewBox="0 0 57.23375 57.111253"
   id="svg4235"
   version="1.1"
   inkscape:version="0.91 r"
   sodipodi:docname="logo.svg">
  <defs
     id="defs4237" />
  <sodipodi:namedview
     id="base"
     pagecolor="#ffffff"
     bordercolor="#666666"
     borderopacity="1.0"
     inkscape:pageopacity="0.0"
     inkscape:pageshadow="2"
     inkscape:zoom="3.959798"
     inkscape:cx="168.21684"
     inkscape:cy="77.03334"
     inkscape:document-units="px"
     inkscape:current-layer="layer1"
     showgrid="false"
     units="px"
     fit-margin-top="5"
     fit-margin-left="5"
     fit-margin-right="5"
     fit-margin-bottom="5"
     inkscape:window-width="1859"
     inkscape:window-height="1056"
     inkscape:window-x="61"
     inkscape:window-y="24"
     inkscape:window-maximized="1" />
  <metadata
     id="metadata4240">
    <rdf:RDF>
      <cc:Work
         rdf:about="">
        <dc:format>image/svg+xml</dc:format>
        <dc:type
           rdf:resource="http://purl.org/dc/dcmitype/StillImage" />
        <dc:title></dc:title>
      </cc:Work>
    </rdf:RDF>
  </metadata>
  <g
     inkscape:label="Layer 1"
     inkscape:groupmode="layer"
     id="layer1"
     transform="translate(-559.95455,-618.09229)">
    <path
       d="m 588.5708,648.53854 c -1.04375,0 -1.89125,-0.84625 -1.89125,-1.89125 0,-1.045 0.8475,-1.89125 1.89125,-1.89125 1.045,0 1.8925,0.84625 1.8925,1.89125 0,1.045 -0.8475,1.89125 -1.8925,1.89125 m 1.48,12.11 0,4.3275 -2.95875,0 0,-4.3275 c -7.07125,-0.74 -12.60375,-6.735 -12.60375,-14.0025 0,-7.265 5.5325,-13.2575 12.60375,-14.0025 l 0,-4.41875 2.95875,0 0,4.41875 c 7.0725,0.745 12.60375,6.7375 12.60375,14.0025 0,7.2675 -5.53125,13.26 -12.60375,14.0025 m 0,-37.55625 0,4.21 -2.95875,0 0,-4.21 c -12.35125,0.7625 -22.1375,11.00875 -22.1375,23.55375 0,12.545 9.78625,22.7925 22.1375,23.5575 l 0,-4.30375 2.95875,0 0,4.30375 c 12.3525,-0.765 22.1375,-11.0125 22.1375,-23.5575 0,-12.545 -9.785,-22.79125 -22.1375,-23.55375"
       style="fill:#231f20;fill-opacity:1;fill-rule:nonzero;stroke:none"
       id="path338"
       inkscape:connector-curvature="0" />
  </g>
</svg>
