<?xml version="1.0" encoding="UTF-8" standalone="no"?>
<!-- Created with Inkscape (http://www.inkscape.org/) -->

<svg
   xmlns:dc="http://purl.org/dc/elements/1.1/"
   xmlns:cc="http://creativecommons.org/ns#"
   xmlns:rdf="http://www.w3.org/1999/02/22-rdf-syntax-ns#"
   xmlns:svg="http://www.w3.org/2000/svg"
   xmlns="http://www.w3.org/2000/svg"
   xmlns:sodipodi="http://sodipodi.sourceforge.net/DTD/sodipodi-0.dtd"
   xmlns:inkscape="http://www.inkscape.org/namespaces/inkscape"
   width="247.13625"
   height="57.397499"
   viewBox="0 0 247.13625 57.3975"
   id="svg4174"
   version="1.1"
   inkscape:version="0.91 r"
   sodipodi:docname="name-horizontal.svg">
  <defs
     id="defs4176" />
  <sodipodi:namedview
     id="base"
     pagecolor="#ffffff"
     bordercolor="#666666"
     borderopacity="1.0"
     inkscape:pageopacity="0.0"
     inkscape:pageshadow="2"
     inkscape:zoom="0.35"
     inkscape:cx="-160.0033"
     inkscape:cy="202.98449"
     inkscape:document-units="px"
     inkscape:current-layer="layer1"
     showgrid="false"
     units="px"
     fit-margin-top="5"
     fit-margin-left="5"
     fit-margin-right="5"
     fit-margin-bottom="5"
     inkscape:window-width="1859"
     inkscape:window-height="1056"
     inkscape:window-x="61"
     inkscape:window-y="24"
     inkscape:window-maximized="1" />
  <metadata
     id="metadata4179">
    <rdf:RDF>
      <cc:Work
         rdf:about="">
        <dc:format>image/svg+xml</dc:format>
        <dc:type
           rdf:resource="http://purl.org/dc/dcmitype/StillImage" />
        <dc:title></dc:title>
      </cc:Work>
    </rdf:RDF>
  </metadata>
  <g
     inkscape:label="Layer 1"
     inkscape:groupmode="layer"
     id="layer1"
     transform="translate(-213.57473,-677.94917)">
    <path
       d="m 385.85848,708.54042 c -1.04375,0 -1.89125,-0.8475 -1.89125,-1.8925 0,-1.045 0.8475,-1.89125 1.89125,-1.89125 1.045,0 1.8925,0.84625 1.8925,1.89125 0,1.045 -0.8475,1.8925 -1.8925,1.8925 m -40.93375,-4.775 -1.74875,0 0,4.08125 -2.95875,0 0,-19.59375 2.95875,0 0,4.08125 1.74875,0 c 3.16125,0 6.12,1.61375 6.12,5.715 0,4.1025 -2.95875,5.71625 -6.12,5.71625 m 5.51,10.99125 -1.37,-2.195 c 6.32625,-1.25 11.73125,-6.6 11.73125,-14.44375 0,-9.3475 -7.12875,-14.86375 -14.5925,-14.86375 l -3.0275,0 0,4.075 -2.95875,0 0,-2.31125 c 0,-0.96 -0.78625,-1.74375 -1.745,-1.74375 l -6.2625,0 c -0.96125,0 -1.74375,0.78375 -1.74375,1.74375 l 0,43.58625 c 0,0.95875 0.7825,1.7425 1.74375,1.7425 l 6.2625,0 c 0.95875,0 1.745,-0.78375 1.745,-1.7425 l 0,-19.83375 2.95875,0 0,4.07375 3.0275,0 c 0.6275,0 1.2525,-0.0437 1.8725,-0.12125 l 1.40625,2.255 c -1.1075,0.2225 -2.24,0.3475 -3.375,0.3475 l -1.8075,0 7.5875,15.02125 10.92375,0 -8.61125,-17.05 c -1.1925,0.63 -2.46,1.12 -3.765,1.46 m 36.90375,5.74875 0,4.32875 -2.95875,0 0,-4.32875 c -7.07125,-0.74 -12.60375,-6.735 -12.60375,-14.00125 0,-7.265 5.5325,-13.25875 12.60375,-14.00375 l 0,-4.41875 2.95875,0 0,4.41875 c 7.0725,0.745 12.60375,6.73875 12.60375,14.00375 0,7.26625 -5.53125,13.26 -12.60375,14.00125 m 0,-37.55625 0,4.21 -2.95875,0 0,-4.21 c -12.35125,0.7625 -22.1375,11.00875 -22.1375,23.555 0,12.54375 9.78625,22.79125 22.1375,23.5575 l 0,-4.305 2.95875,0 0,4.305 c 12.3525,-0.76625 22.1375,-11.01375 22.1375,-23.5575 0,-12.54625 -9.785,-22.7925 -22.1375,-23.555 m -125.79125,5.2475 2.9575,0 0,4.07875 1.74875,0 c 3.1625,0 6.12125,1.61375 6.12125,5.7175 0,4.1025 -2.95875,5.71875 -6.12125,5.71875 l -1.74875,0 0,4.07875 -2.9575,0 0,-19.59375 z m -8.0075,42.0775 6.265,0 c 0.9575,0 1.7425,-0.78375 1.7425,-1.74375 l 0,-19.81875 2.9575,0 0,4.07625 3.0275,0 c 7.46625,0 14.595,-5.7175 14.595,-14.72875 0,-9.3475 -7.12875,-14.8625 -14.595,-14.8625 l -3.0275,0 0,4.07625 -2.9575,0 0,-2.33125 c 0,-0.96125 -0.785,-1.745 -1.7425,-1.745 l -6.265,0 c -0.96,0 -1.74375,0.78375 -1.74375,1.745 l 0,43.58875 c 0,0.96 0.78375,1.74375 1.74375,1.74375 m 168.64625,-45.25625 0,43.58625 c 0,0.95875 -0.78625,1.7425 -1.74375,1.7425 l -6.265,0 c -0.95875,0 -1.7425,-0.78375 -1.7425,-1.7425 l 0,-43.58625 c 0,-0.96 0.78375,-1.74375 1.7425,-1.74375 l 6.265,0 c 0.9575,0 1.74375,0.78375 1.74375,1.74375 m -173.34875,-0.0788 0,7.485 0,23.52375 c 0,8.14 -6.5225,14.32625 -14.45875,14.32625 l -1.36875,0 c -0.58,-0.003 -1.15125,-0.0375 -1.71375,-0.105 l 0,-4.14625 -2.9575,0 0,3.49125 c -5.65875,-1.88625 -9.76375,-7.11125 -9.76375,-13.56625 l 0,-20.4475 0.0125,0 0,-10.56125 c 0,-0.95625 0.785,-1.7425 1.74375,-1.7425 l 6.26375,0 c 0.95875,0 1.74375,0.78625 1.74375,1.7425 l 0,25.1375 c 0,0.0675 -0.005,0.13625 -0.0138,0.2025 l 0,5.87125 c 0,0.105 0.009,0.205 0.0138,0.3075 l 0,8.6425 2.9575,0 0,-4.23625 c 0.52875,0.21 1.11125,0.33 1.7375,0.33 l 0,0.005 1.345,0 0,-0.005 c 2.75625,0 4.7075,-2.21875 4.7075,-5.04375 l 0,-23.72625 0,-7.485 c 0,-0.95625 0.78375,-1.7425 1.74375,-1.7425 l 6.26375,0 c 0.96,0 1.74375,0.78625 1.74375,1.7425 m 196.8175,31.28625 c 0,2.6225 -2.08625,5.0425 -4.71,5.0425 l -3.0925,0 0,3.7375 -2.95875,0 0,-36.7525 2.95875,0 0,4.10125 3.0925,0 c 2.62375,0 4.71,2.41875 4.71,5.04125 l 0,18.83 z m -4.71,-32.95125 -3.0925,0 0,4.055 -2.95875,0 0,-2.31125 c 0,-0.96 -0.78375,-1.74375 -1.7425,-1.74375 l -6.265,0 c -0.9575,0 -1.74125,0.78375 -1.74125,1.74375 l 0,43.58625 c 0,0.95875 0.78375,1.7425 1.74125,1.7425 l 6.265,0 c 0.95875,0 1.7425,-0.78375 1.7425,-1.7425 l 0,-2.67625 2.95875,0 0,4.41875 3.0925,0 c 7.9375,0 14.76625,-6.1175 14.76625,-14.12125 l 0,-18.83 c 0,-7.935 -6.82875,-14.12125 -14.76625,-14.12125 m -123.305,32.95125 c 0,2.6225 -2.085,5.0425 -4.70875,5.0425 l -3.08125,0 0,3.7375 -2.97125,0 0,-36.7525 2.97125,0 0,4.10125 3.08125,0 c 2.62375,0 4.70875,2.41875 4.70875,5.04125 l 0,18.83 z m -4.70875,-32.95125 -3.08125,0 0,4.055 -2.97125,0 0,-2.31125 c 0,-0.96 -0.785,-1.74375 -1.7425,-1.74375 l -6.265,0 c -0.95875,0 -1.7425,0.78375 -1.7425,1.74375 l 0,43.58625 c 0,0.95875 0.78375,1.7425 1.7425,1.7425 l 6.265,0 c 0.9575,0 1.7425,-0.78375 1.7425,-1.7425 l 0,-2.67625 2.97125,0 0,4.41875 3.08125,0 c 7.93625,0 14.46,-6.1175 14.46,-14.12125 l 0,-18.83 c 0,-7.935 -6.52375,-14.12125 -14.46,-14.12125"
       style="fill:#231f20;fill-opacity:1;fill-rule:nonzero;stroke:none"
       id="path342"
       inkscape:connector-curvature="0" />
  </g>
</svg>
