<?xml version="1.0" encoding="UTF-8" standalone="no"?>
<!-- Created with Inkscape (http://www.inkscape.org/) -->

<svg
   xmlns:dc="http://purl.org/dc/elements/1.1/"
   xmlns:cc="http://creativecommons.org/ns#"
   xmlns:rdf="http://www.w3.org/1999/02/22-rdf-syntax-ns#"
   xmlns:svg="http://www.w3.org/2000/svg"
   xmlns="http://www.w3.org/2000/svg"
   xmlns:sodipodi="http://sodipodi.sourceforge.net/DTD/sodipodi-0.dtd"
   xmlns:inkscape="http://www.inkscape.org/namespaces/inkscape"
   width="168.5825"
   height="107.14625"
   viewBox="0 0 168.58251 107.14625"
   id="svg4132"
   version="1.1"
   inkscape:version="0.91 r"
   sodipodi:docname="name.svg">
  <defs
     id="defs4134" />
  <sodipodi:namedview
     id="base"
     pagecolor="#ffffff"
     bordercolor="#666666"
     borderopacity="1.0"
     inkscape:pageopacity="0.0"
     inkscape:pageshadow="2"
     inkscape:zoom="3.959798"
     inkscape:cx="41.344443"
     inkscape:cy="61.946527"
     inkscape:document-units="px"
     inkscape:current-layer="layer1"
     showgrid="false"
     units="px"
     fit-margin-top="5"
     fit-margin-left="5"
     fit-margin-right="5"
     fit-margin-bottom="5"
     inkscape:window-width="1859"
     inkscape:window-height="1056"
     inkscape:window-x="61"
     inkscape:window-y="24"
     inkscape:window-maximized="1" />
  <metadata
     id="metadata4137">
    <rdf:RDF>
      <cc:Work
         rdf:about="">
        <dc:format>image/svg+xml</dc:format>
        <dc:type
           rdf:resource="http://purl.org/dc/dcmitype/StillImage" />
        <dc:title></dc:title>
      </cc:Work>
    </rdf:RDF>
  </metadata>
  <g
     inkscape:label="Layer 1"
     inkscape:groupmode="layer"
     id="layer1"
     transform="translate(-498.56589,-655.93194)">
    <path
       d="m 592.29589,736.41444 c -1.04375,0 -1.89125,-0.8475 -1.89125,-1.8925 0,-1.045 0.8475,-1.89125 1.89125,-1.89125 1.045,0 1.8925,0.84625 1.8925,1.89125 0,1.045 -0.8475,1.8925 -1.8925,1.8925 m -40.93375,-4.9275 -1.74875,0 0,4.08125 -2.95875,0 0,-19.595 2.95875,0 0,4.08125 1.74875,0 c 3.1625,0 6.12,1.61375 6.12,5.715 0,4.10375 -2.9575,5.7175 -6.12,5.7175 m 5.51,10.99125 -1.37,-2.195 c 6.325,-1.25 11.73125,-6.6 11.73125,-14.445 0,-9.34625 -7.1275,-14.86375 -14.5925,-14.86375 l -3.0275,0 0,4.07625 -2.95875,0 0,-2.31125 c 0,-0.96 -0.785,-1.74375 -1.745,-1.74375 l -6.2625,0 c -0.96125,0 -1.74375,0.78375 -1.74375,1.74375 l 0,43.58625 c 0,0.95875 0.7825,1.7425 1.74375,1.7425 l 6.2625,0 c 0.96,0 1.745,-0.78375 1.745,-1.7425 l 0,-19.83375 2.95875,0 0,4.07375 3.0275,0 c 0.6275,0 1.25375,-0.0438 1.8725,-0.1225 l 1.40625,2.255 c -1.1075,0.22375 -2.24,0.34875 -3.375,0.34875 l -1.8075,0 7.5875,15.02125 10.92375,0 -8.6125,-17.05125 c -1.19125,0.63 -2.45875,1.12 -3.76375,1.46125 m 36.90375,6.04625 0,4.32625 -2.95875,0 0,-4.32625 c -7.07125,-0.74125 -12.60375,-6.73625 -12.60375,-14.00375 0,-7.265 5.5325,-13.2575 12.60375,-14.0025 l 0,-4.41875 2.95875,0 0,4.41875 c 7.0725,0.745 12.60375,6.7375 12.60375,14.0025 0,7.2675 -5.53125,13.26 -12.60375,14.00375 m 0,-37.5575 0,4.21 -2.95875,0 0,-4.21 c -12.35125,0.7625 -22.1375,11.00875 -22.1375,23.55375 0,12.545 9.78625,22.7925 22.1375,23.5575 l 0,-4.30375 2.95875,0 0,4.30375 c 12.3525,-0.765 22.1375,-11.0125 22.1375,-23.5575 0,-12.545 -9.785,-22.79125 -22.1375,-23.55375 m -47.23625,-45.035 2.95625,0 0,4.08125 1.75,0 c 3.16125,0 6.12125,1.61375 6.12125,5.71625 0,4.1025 -2.96,5.7175 -6.12125,5.7175 l -1.75,0 0,4.08 -2.95625,0 0,-19.595 z m -8.00875,42.07875 6.265,0 c 0.95875,0 1.74375,-0.78375 1.74375,-1.74375 l 0,-19.81875 2.95625,0 0,4.0775 3.02875,0 c 7.465,0 14.59375,-5.7175 14.59375,-14.73 0,-9.3475 -7.12875,-14.8625 -14.59375,-14.8625 l -3.02875,0 0,4.07625 -2.95625,0 0,-2.33125 c 0,-0.96125 -0.785,-1.745 -1.74375,-1.745 l -6.265,0 c -0.95875,0 -1.74375,0.78375 -1.74375,1.745 l 0,43.58875 c 0,0.96 0.785,1.74375 1.74375,1.74375 m 90.0925,4.71875 0,43.58625 c 0,0.95875 -0.78625,1.7425 -1.74375,1.7425 l -6.265,0 c -0.95875,0 -1.7425,-0.78375 -1.7425,-1.7425 l 0,-43.58625 c 0,-0.96 0.78375,-1.74375 1.7425,-1.74375 l 6.265,0 c 0.9575,0 1.74375,0.78375 1.74375,1.74375 m -94.79375,-50.0525 0,7.485 0,23.5225 c 0,8.13875 -6.52375,14.325 -14.45875,14.325 l -1.36875,0 c -0.58,-0.003 -1.15125,-0.035 -1.715,-0.10375 l 0,-4.14625 -2.95625,0 0,3.4925 c -5.65875,-1.88875 -9.76375,-7.1125 -9.76375,-13.5675 l 0,-20.4475 0.0125,0 0,-10.56 c 0,-0.95875 0.785,-1.745 1.74375,-1.745 l 6.26375,0 c 0.95875,0 1.74375,0.78625 1.74375,1.745 l 0,25.135 c 0,0.07 -0.005,0.13875 -0.0137,0.20375 l 0,5.8725 c 0,0.10375 0.009,0.205 0.0137,0.30625 l 0,8.6425 2.95625,0 0,-4.235 c 0.53,0.21 1.1125,0.33 1.73875,0.33 l 0,0.004 1.345,0 0,-0.004 c 2.75625,0 4.70625,-2.22 4.70625,-5.04375 l 0,-23.72625 0,-7.485 c 0,-0.95875 0.785,-1.745 1.74375,-1.745 l 6.265,0 c 0.96,0 1.74375,0.78625 1.74375,1.745 m 118.2625,81.26125 c 0,2.62125 -2.08625,5.04125 -4.71,5.04125 l -3.0925,0 0,3.73625 -2.95875,0 0,-36.75125 2.95875,0 0,4.1 3.0925,0 c 2.62375,0 4.71,2.42 4.71,5.0425 l 0,18.83125 z m -4.71,-32.9525 -3.0925,0 0,4.055 -2.95875,0 0,-2.31125 c 0,-0.96 -0.78375,-1.74375 -1.7425,-1.74375 l -6.265,0 c -0.9575,0 -1.74125,0.78375 -1.74125,1.74375 l 0,43.58625 c 0,0.95875 0.78375,1.7425 1.74125,1.7425 l 6.265,0 c 0.95875,0 1.7425,-0.78375 1.7425,-1.7425 l 0,-2.6775 2.95875,0 0,4.42 3.0925,0 c 7.9375,0 14.76625,-6.11875 14.76625,-14.12 l 0,-18.83125 c 0,-7.93625 -6.82875,-14.12125 -14.76625,-14.12125 m -123.30625,32.9525 c 0,2.62125 -2.08375,5.04125 -4.7075,5.04125 l -3.08125,0 0,3.73625 -2.97,0 0,-36.75125 2.97,0 0,4.1 3.08125,0 c 2.62375,0 4.7075,2.42 4.7075,5.0425 l 0,18.83125 z m -4.7075,-32.9525 -3.08125,0 0,4.055 -2.97,0 0,-2.31125 c 0,-0.96 -0.785,-1.74375 -1.74375,-1.74375 l -6.26375,0 c -0.95875,0 -1.74375,0.78375 -1.74375,1.74375 l 0,43.58625 c 0,0.95875 0.785,1.7425 1.74375,1.7425 l 6.26375,0 c 0.95875,0 1.74375,-0.78375 1.74375,-1.7425 l 0,-2.6775 2.97,0 0,4.42 3.08125,0 c 7.935,0 14.46,-6.11875 14.46,-14.12 l 0,-18.83125 c 0,-7.93625 -6.525,-14.12125 -14.46,-14.12125"
       style="fill:#231f20;fill-opacity:1;fill-rule:nonzero;stroke:none"
       id="path346"
       inkscape:connector-curvature="0" />
  </g>
</svg>
