<?xml version="1.0" encoding="UTF-8" standalone="no"?>
<!-- Created with Inkscape (http://www.inkscape.org/) -->

<svg
   xmlns:dc="http://purl.org/dc/elements/1.1/"
   xmlns:cc="http://creativecommons.org/ns#"
   xmlns:rdf="http://www.w3.org/1999/02/22-rdf-syntax-ns#"
   xmlns:svg="http://www.w3.org/2000/svg"
   xmlns="http://www.w3.org/2000/svg"
   xmlns:sodipodi="http://sodipodi.sourceforge.net/DTD/sodipodi-0.dtd"
   xmlns:inkscape="http://www.inkscape.org/namespaces/inkscape"
   width="280.96002"
   height="138.36108"
   viewBox="0 0 280.96002 138.36109"
   id="svg3824"
   version="1.1"
   inkscape:version="0.91 r"
   sodipodi:docname="updroid.svg">
  <defs
     id="defs3826">
    <clipPath
       clipPathUnits="userSpaceOnUse"
       id="clipPath60">
      <path
         d="m 0,841.89 595.28,0 L 595.28,0 0,0 0,841.89 Z"
         id="path62"
         inkscape:connector-curvature="0" />
    </clipPath>
  </defs>
  <sodipodi:namedview
     id="base"
     pagecolor="#ffffff"
     bordercolor="#666666"
     borderopacity="1.0"
     inkscape:pageopacity="0.0"
     inkscape:pageshadow="2"
     inkscape:zoom="2.8"
     inkscape:cx="168.15086"
     inkscape:cy="53.008062"
     inkscape:document-units="px"
     inkscape:current-layer="layer1"
     showgrid="false"
     units="px"
     fit-margin-top="5"
     fit-margin-left="5"
     fit-margin-right="5"
     fit-margin-bottom="5"
     inkscape:window-width="1859"
     inkscape:window-height="1056"
     inkscape:window-x="61"
     inkscape:window-y="24"
     inkscape:window-maximized="1" />
  <metadata
     id="metadata3829">
    <rdf:RDF>
      <cc:Work
         rdf:about="">
        <dc:format>image/svg+xml</dc:format>
        <dc:type
           rdf:resource="http://purl.org/dc/dcmitype/StillImage" />
        <dc:title></dc:title>
      </cc:Work>
    </rdf:RDF>
  </metadata>
  <g
     inkscape:label="Layer 1"
     inkscape:groupmode="layer"
     id="layer1"
     transform="translate(-196.66284,-408.89594)">
    <g
       transform="matrix(1.25,0,0,-1.25,161.61008,1286.3419)"
       id="g56">
      <g
         id="g58"
         clip-path="url(#clipPath60)">
        <g
           id="g64"
           transform="translate(92.2949,616.6509)">
          <path
             d="M 0,0 C 0.75,0.399 0.723,0.565 0.553,1.646 0.529,1.795 0.504,1.955 0.479,2.131 0.371,2.879 0.371,2.879 -0.877,3.029 -1.398,3.09 -1.973,3.161 -2.745,3.3 c -2.19,0.392 -5.991,1.333 -7.105,1.612 -0.088,0.022 -0.166,0.032 -0.235,0.032 -0.513,0 -0.574,-0.665 -0.579,-0.741 0,-0.014 0.073,-6.431 0.073,-8.084 0,-0.57 0.23,-0.687 0.574,-0.687 0.333,0 0.692,0.135 0.83,0.194 l 0.011,0.004 0.211,0.099 C -3.813,-1.852 -0.629,-0.335 0,0"
             style="fill:#231f20;fill-opacity:1;fill-rule:nonzero;stroke:none"
             id="path66"
             inkscape:connector-curvature="0" />
        </g>
        <g
           id="g68"
           transform="translate(199.2207,620.8647)">
          <path
             d="m 0,0 c -0.002,0.021 -0.048,0.73 -0.579,0.73 -0.069,0 -0.149,-0.01 -0.235,-0.032 -0.788,-0.198 -4.829,-1.204 -7.103,-1.612 -0.781,-0.14 -1.375,-0.213 -1.871,-0.271 -1.246,-0.15 -1.246,-0.15 -1.355,-0.898 -0.02,-0.142 -0.04,-0.273 -0.059,-0.396 l -0.013,-0.085 c -0.172,-1.084 -0.198,-1.25 0.551,-1.65 0.893,-0.476 6.607,-3.164 9.022,-4.297 l 0.161,-0.075 c 0.11,-0.047 0.488,-0.196 0.835,-0.196 0.343,0 0.572,0.117 0.572,0.687 0,1.682 0.073,8.057 0.074,8.095"
             style="fill:#231f20;fill-opacity:1;fill-rule:nonzero;stroke:none"
             id="path70"
             inkscape:connector-curvature="0" />
        </g>
        <g
           id="g72"
           transform="translate(199.9033,620.3677)">
          <path
             d="m 0,0 c -0.017,-1.537 -0.067,-6.214 -0.067,-7.598 0,-0.86 -0.472,-1.374 -1.262,-1.374 -0.567,0 -1.122,0.258 -1.127,0.261 l -0.309,0.145 c -6.548,3.073 -8.457,4.004 -8.904,4.242 -1.181,0.63 -1.084,1.244 -0.909,2.358 0.024,0.151 0.048,0.307 0.072,0.477 0.183,1.269 0.665,1.328 1.953,1.484 0.472,0.057 1.056,0.127 1.832,0.265 2.179,0.392 5.953,1.325 7.059,1.601 0.137,0.035 0.271,0.054 0.4,0.054 0.945,0 1.241,-0.919 1.267,-1.404 C 0.005,0.493 0.003,0.309 0,0 m -107.284,-4.324 c -0.443,-0.237 -2.336,-1.159 -8.849,-4.216 l -0.366,-0.172 c -0.006,-0.003 -0.562,-0.26 -1.126,-0.26 -0.79,0 -1.262,0.514 -1.262,1.374 0,1.384 -0.05,6.061 -0.067,7.598 -0.003,0.309 -0.005,0.493 -0.005,0.504 0.026,0.492 0.323,1.411 1.266,1.411 0.127,0 0.262,-0.018 0.403,-0.054 0.781,-0.195 4.789,-1.193 7.058,-1.601 0.772,-0.138 1.355,-0.208 1.825,-0.264 1.295,-0.157 1.777,-0.216 1.958,-1.485 0.024,-0.17 0.05,-0.326 0.073,-0.471 0.171,-1.081 0.273,-1.732 -0.908,-2.364 M 3.302,-8.672 3.263,-3.871 C 3.247,-0.175 3.246,3.584 3.246,7.218 c 0,2.435 0,4.871 -0.005,7.306 -0.007,3.349 -1.351,6.253 -4.109,8.876 -0.302,0.287 -0.813,0.388 -1.353,0.494 -0.151,0.03 -0.305,0.06 -0.459,0.094 l -3.436,-7.396 c 0.195,-1.155 0.151,-2.255 -0.13,-3.271 C -8.501,5.184 -25.694,1.228 -58.807,1.228 l -1.342,0 c -33.112,0 -50.304,3.956 -52.559,12.093 -0.283,1.018 -0.326,2.118 -0.131,3.273 l -3.435,7.394 c -0.153,-0.034 -0.307,-0.064 -0.459,-0.094 -0.541,-0.107 -1.051,-0.207 -1.352,-0.494 -2.76,-2.623 -4.103,-5.526 -4.11,-8.876 -0.005,-2.399 -0.005,-4.797 -0.005,-7.197 -10e-4,-3.67 -0.002,-7.465 -0.018,-11.198 l -0.039,-4.8 c 0.026,-0.098 0.039,-0.175 0.041,-0.25 0.036,-1.257 0.029,-2.537 0.022,-3.775 l -0.003,-0.643 c -0.003,-0.863 0.423,-1.376 1.301,-1.567 0.148,-0.032 0.31,-0.047 0.528,-0.047 0.097,0 0.197,0.003 0.297,0.006 0.1,0.003 0.201,0.006 0.301,0.006 l 0.693,0 c 8.652,8.315 32.588,13.904 59.599,13.912 27.014,-0.008 50.95,-5.597 59.599,-13.912 l 0.693,0 c 0.101,0 0.202,-0.003 0.303,-0.006 0.099,-0.003 0.198,-0.006 0.296,-0.006 0.218,0 0.381,0.015 0.528,0.047 0.878,0.19 1.304,0.704 1.301,1.568 l -0.003,0.611 c -0.007,1.248 -0.014,2.539 0.024,3.807 10e-4,0.073 0.012,0.15 0.039,0.248"
             style="fill:#231f20;fill-opacity:1;fill-rule:nonzero;stroke:none"
             id="path74"
             inkscape:connector-curvature="0" />
        </g>
        <g
           id="g76"
           transform="translate(219.6729,623.437)">
          <path
             d="m 0,0 0.308,0.529 0,0.804 L 0,0.802 -1.094,2.701 -2.189,0.802 -3.287,2.701 -4.384,0.802 -5.479,2.701 -6.576,0.802 -7.672,2.701 -8.769,0.802 l -1.097,1.899 -1.096,-1.899 -1.096,1.899 -1.097,-1.899 -0.306,0.529 0,-0.803 L -13.155,0 -12.058,1.898 -10.962,0 -9.866,1.898 -8.769,0 -7.672,1.898 -6.576,0 -5.479,1.898 -4.384,0 -3.287,1.898 -2.189,0 -1.094,1.898 0,0 Z"
             style="fill:#231f20;fill-opacity:1;fill-rule:nonzero;stroke:none"
             id="path78"
             inkscape:connector-curvature="0" />
        </g>
        <g
           id="g80"
           transform="translate(219.6729,627.7935)">
          <path
             d="m 0,0 0.308,0.53 0,0.804 L 0,0.803 -1.094,2.701 -2.189,0.803 -3.287,2.701 -4.384,0.803 -5.479,2.701 -6.576,0.803 -7.672,2.701 -8.769,0.803 l -1.097,1.898 -1.096,-1.898 -1.096,1.898 -1.097,-1.898 -0.306,0.529 0,-0.804 L -13.155,0 -12.058,1.899 -10.962,0 -9.866,1.899 -8.769,0 -7.672,1.899 -6.576,0 -5.479,1.899 -4.384,0 -3.287,1.899 -2.189,0 -1.094,1.899 0,0 Z"
             style="fill:#231f20;fill-opacity:1;fill-rule:nonzero;stroke:none"
             id="path82"
             inkscape:connector-curvature="0" />
        </g>
        <g
           id="g84"
           transform="translate(219.6729,621.2583)">
          <path
             d="m 0,0 0.308,0.529 0,0.805 L 0,0.803 -1.094,2.701 -2.189,0.803 -3.287,2.701 -4.384,0.803 -5.479,2.701 -6.576,0.803 -7.672,2.701 -8.769,0.803 l -1.097,1.898 -1.096,-1.898 -1.096,1.898 -1.097,-1.898 -0.306,0.529 0,-0.804 L -13.155,0 -12.058,1.898 -10.962,0 -9.866,1.898 -8.769,-0.001 -7.672,1.898 -6.576,0 -5.479,1.898 -4.384,0 -3.287,1.898 -2.189,0 -1.094,1.898 0,0 Z"
             style="fill:#231f20;fill-opacity:1;fill-rule:nonzero;stroke:none"
             id="path86"
             inkscape:connector-curvature="0" />
        </g>
        <g
           id="g88"
           transform="translate(219.6729,625.6147)">
          <path
             d="m 0,0 0.308,0.53 0,0.805 L 0,0.803 -1.094,2.701 -2.189,0.803 -3.287,2.701 -4.384,0.803 -5.479,2.701 -6.576,0.803 -7.672,2.701 -8.769,0.803 l -1.097,1.898 -1.096,-1.898 -1.096,1.898 -1.097,-1.898 -0.306,0.529 0,-0.804 L -13.155,0 -12.058,1.899 -10.962,0 -9.866,1.899 -8.769,0 -7.672,1.899 -6.576,0 -5.479,1.899 -4.384,0 -3.287,1.899 -2.189,0 -1.094,1.899 0,0 Z"
             style="fill:#231f20;fill-opacity:1;fill-rule:nonzero;stroke:none"
             id="path90"
             inkscape:connector-curvature="0" />
        </g>
        <g
           id="g92"
           transform="translate(73.2373,597.8159)">
          <path
             d="M 0,0 -1.096,-1.898 -2.192,0 -3.288,-1.898 -4.388,0 -5.481,-1.898 -6.577,0 -7.675,-1.898 -8.771,0 -9.866,-1.898 -10.964,0 -11.89,-1.604 c 0.448,-0.592 1.145,-0.944 1.883,-0.944 l 9.051,0 c 0.739,0 1.437,0.352 1.883,0.944 L 0,0 Z"
             style="fill:#231f20;fill-opacity:1;fill-rule:nonzero;stroke:none"
             id="path94"
             inkscape:connector-curvature="0" />
        </g>
        <g
           id="g96"
           transform="translate(74.334,608.186)">
          <path
             d="m 0,0 0.305,0.528 0,0.803 L 0,0.803 l -1.097,1.9 -1.095,-1.9 -1.097,1.9 -1.096,-1.9 -1.099,1.9 -1.094,-1.9 -1.096,1.9 -1.097,-1.9 -1.096,1.9 -1.096,-1.9 -1.098,1.9 -1.095,-1.9 -0.307,0.531 0,-0.804 L -13.156,0 -12.061,1.9 -10.963,0 -9.867,1.9 -8.771,0 -7.674,1.9 -6.578,0 -5.484,1.9 -4.385,0 -3.289,1.9 -2.192,0 -1.097,1.9 0,0 Z"
             style="fill:#231f20;fill-opacity:1;fill-rule:nonzero;stroke:none"
             id="path98"
             inkscape:connector-curvature="0" />
        </g>
        <g
           id="g100"
           transform="translate(74.334,606.0083)">
          <path
             d="m 0,0 0.305,0.527 0,0.804 L 0,0.803 -1.097,2.701 -2.192,0.803 -3.289,2.701 -4.385,0.803 -5.484,2.701 -6.578,0.803 -7.674,2.701 -8.771,0.803 l -1.096,1.898 -1.096,-1.898 -1.098,1.898 -1.095,-1.898 -0.307,0.53 0,-0.805 L -13.156,0 -12.061,1.897 -10.963,0 -9.867,1.897 -8.771,0 -7.674,1.897 -6.578,0 -5.484,1.897 -4.385,-0.001 -3.289,1.897 -2.192,0 -1.097,1.897 0,0 Z"
             style="fill:#231f20;fill-opacity:1;fill-rule:nonzero;stroke:none"
             id="path102"
             inkscape:connector-curvature="0" />
        </g>
        <g
           id="g104"
           transform="translate(74.334,610.3657)">
          <path
             d="m 0,0 0.305,0.528 0,0.801 L 0,0.801 l -1.097,1.9 -1.095,-1.9 -1.097,1.9 -1.096,-1.9 -1.099,1.9 -1.094,-1.9 -1.096,1.9 -1.097,-1.9 -1.096,1.9 -1.096,-1.9 -1.098,1.9 -1.095,-1.9 -0.307,0.531 0,-0.802 L -13.156,0 -12.061,1.898 -10.963,0 -9.867,1.898 -8.771,0 -7.674,1.898 -6.578,0 -5.484,1.898 -4.385,0 -3.289,1.898 -2.192,0 -1.097,1.898 0,0 Z"
             style="fill:#231f20;fill-opacity:1;fill-rule:nonzero;stroke:none"
             id="path106"
             inkscape:connector-curvature="0" />
        </g>
        <g
           id="g108"
           transform="translate(74.334,603.8296)">
          <path
             d="m 0,0 0.305,0.528 0,0.802 L 0,0.802 -1.097,2.701 -2.192,0.802 -3.289,2.701 -4.385,0.802 -5.484,2.701 -6.578,0.802 -7.674,2.701 -8.771,0.802 l -1.096,1.899 -1.096,-1.899 -1.098,1.899 -1.095,-1.899 -0.307,0.53 0,-0.802 L -13.156,0 -12.061,1.898 -10.963,0 -9.867,1.898 -8.771,0 -7.674,1.898 -6.578,0 -5.484,1.898 -4.385,0 -3.289,1.898 -2.192,0 -1.097,1.898 0,0 Z"
             style="fill:#231f20;fill-opacity:1;fill-rule:nonzero;stroke:none"
             id="path110"
             inkscape:connector-curvature="0" />
        </g>
        <g
           id="g112"
           transform="translate(74.334,597.2944)">
          <path
             d="m 0,0 0.305,0.528 0,0.802 L 0,0.802 -1.097,2.7 -2.192,0.802 -3.289,2.7 -4.385,0.802 -5.484,2.7 -6.578,0.802 -7.674,2.7 -8.771,0.802 -9.867,2.7 -10.963,0.802 -12.061,2.7 l -1.095,-1.898 -0.307,0.53 0,-0.803 L -13.156,0 -12.061,1.897 -10.963,0 -9.867,1.897 -8.771,0 -7.674,1.897 -6.578,0 -5.484,1.897 -4.385,-0.001 -3.289,1.897 -2.192,0 -1.097,1.897 0,0 Z"
             style="fill:#231f20;fill-opacity:1;fill-rule:nonzero;stroke:none"
             id="path114"
             inkscape:connector-curvature="0" />
        </g>
        <g
           id="g116"
           transform="translate(74.334,601.6509)">
          <path
             d="m 0,0 0.305,0.528 0,0.802 L 0,0.802 -1.097,2.701 -2.192,0.802 -3.289,2.701 -4.385,0.802 -5.484,2.701 -6.578,0.802 -7.674,2.701 -8.771,0.802 l -1.096,1.899 -1.096,-1.899 -1.098,1.899 -1.095,-1.899 -0.307,0.531 0,-0.804 L -13.156,0 -12.061,1.899 -10.963,0 -9.867,1.899 -8.771,0 -7.674,1.899 -6.578,0 -5.484,1.899 -4.385,0 -3.289,1.899 -2.192,0 -1.097,1.899 0,0 Z"
             style="fill:#231f20;fill-opacity:1;fill-rule:nonzero;stroke:none"
             id="path118"
             inkscape:connector-curvature="0" />
        </g>
        <g
           id="g120"
           transform="translate(73.2373,631.8716)">
          <path
             d="m 0,0 1.097,-1.899 0.274,0.476 C 1.228,-0.239 0.233,0.648 -0.956,0.648 l -9.051,0 c -1.189,0 -2.182,-0.886 -2.328,-2.07 L -12.06,-1.899 -10.964,0 -9.866,-1.899 -8.771,0 -7.675,-1.899 -6.577,0 -5.481,-1.899 -4.388,0 -3.288,-1.899 -2.192,0 -1.096,-1.899 0,0 Z"
             style="fill:#231f20;fill-opacity:1;fill-rule:nonzero;stroke:none"
             id="path122"
             inkscape:connector-curvature="0" />
        </g>
        <g
           id="g124"
           transform="translate(74.334,599.4722)">
          <path
             d="m 0,0 0.305,0.528 0,0.804 L 0,0.804 -1.097,2.701 -2.192,0.804 -3.289,2.701 -4.385,0.804 -5.484,2.701 -6.578,0.804 -7.674,2.701 -8.771,0.804 l -1.096,1.897 -1.096,-1.897 -1.098,1.897 -1.095,-1.897 -0.307,0.53 0,-0.806 L -13.156,0 -12.061,1.898 -10.963,0 -9.867,1.898 -8.771,0 -7.674,1.898 -6.578,0 -5.484,1.898 -4.385,0 -3.289,1.898 -2.192,0 -1.097,1.898 0,0 Z"
             style="fill:#231f20;fill-opacity:1;fill-rule:nonzero;stroke:none"
             id="path126"
             inkscape:connector-curvature="0" />
        </g>
        <g
           id="g128"
           transform="translate(219.6729,601.6509)">
          <path
             d="m 0,0 0.308,0.529 0,0.805 L 0,0.802 -1.094,2.701 -2.189,0.802 -3.287,2.701 -4.384,0.802 -5.479,2.701 -6.576,0.802 -7.672,2.701 -8.769,0.802 l -1.097,1.899 -1.096,-1.899 -1.096,1.899 -1.097,-1.899 -0.306,0.529 0,-0.803 L -13.155,0 -12.058,1.899 -10.962,0 -9.866,1.899 -8.769,0 -7.672,1.899 -6.576,0 -5.479,1.899 -4.384,0 -3.287,1.899 -2.189,0 -1.094,1.899 0,0 Z"
             style="fill:#231f20;fill-opacity:1;fill-rule:nonzero;stroke:none"
             id="path130"
             inkscape:connector-curvature="0" />
        </g>
        <g
           id="g132"
           transform="translate(219.6729,619.0786)">
          <path
             d="m 0,0 0.308,0.53 0,0.805 L 0,0.804 -1.094,2.701 -2.189,0.804 -3.287,2.701 -4.384,0.804 -5.479,2.701 -6.576,0.804 -7.672,2.701 -8.769,0.804 l -1.097,1.897 -1.096,-1.897 -1.096,1.897 -1.097,-1.897 -0.306,0.529 0,-0.805 L -13.155,0 -12.058,1.899 -10.962,0 -9.866,1.899 -8.769,0 -7.672,1.899 -6.576,0 -5.479,1.899 -4.384,0 -3.287,1.899 -2.189,0 -1.094,1.899 0,0 Z"
             style="fill:#231f20;fill-opacity:1;fill-rule:nonzero;stroke:none"
             id="path134"
             inkscape:connector-curvature="0" />
        </g>
        <g
           id="g136"
           transform="translate(218.5791,597.8159)">
          <path
             d="M 0,0 -1.096,-1.898 -2.193,0 -3.29,-1.898 -4.386,0 -5.482,-1.898 -6.578,0 -7.675,-1.898 -8.772,0 -9.868,-1.898 -10.964,0 -11.892,-1.604 c 0.447,-0.592 1.145,-0.944 1.884,-0.944 l 9.05,0 c 0.739,0 1.437,0.352 1.883,0.944 L 0,0 Z"
             style="fill:#231f20;fill-opacity:1;fill-rule:nonzero;stroke:none"
             id="path138"
             inkscape:connector-curvature="0" />
        </g>
        <g
           id="g140"
           transform="translate(218.5791,631.8716)">
          <path
             d="m 0,0 1.094,-1.899 0.277,0.478 c -0.144,1.183 -1.14,2.069 -2.329,2.069 l -9.05,0 c -1.189,0 -2.183,-0.887 -2.328,-2.071 L -12.062,-1.899 -10.964,0 -9.868,-1.899 -8.772,0 -7.675,-1.899 -6.578,0 -5.482,-1.899 -4.386,0 -3.29,-1.899 -2.193,0 -1.096,-1.899 0,0 Z"
             style="fill:#231f20;fill-opacity:1;fill-rule:nonzero;stroke:none"
             id="path142"
             inkscape:connector-curvature="0" />
        </g>
        <g
           id="g144"
           transform="translate(74.334,612.5425)">
          <path
             d="m 0,0 0.305,0.529 0,0.803 L 0,0.805 -1.097,2.702 -2.192,0.805 -3.289,2.702 -4.385,0.805 -5.484,2.702 -6.578,0.805 -7.674,2.702 -8.771,0.805 l -1.096,1.897 -1.096,-1.897 -1.098,1.897 -1.095,-1.897 -0.307,0.53 0,-0.804 L -13.156,0 -12.061,1.9 -10.963,0 -9.867,1.9 -8.771,0 -7.674,1.9 -6.578,0 -5.484,1.9 -4.385,0 -3.289,1.9 -2.192,0 -1.097,1.9 0,0 Z"
             style="fill:#231f20;fill-opacity:1;fill-rule:nonzero;stroke:none"
             id="path146"
             inkscape:connector-curvature="0" />
        </g>
        <g
           id="g148"
           transform="translate(219.6729,599.4722)">
          <path
             d="m 0,0 0.308,0.528 0,0.807 L 0,0.804 -1.094,2.701 -2.189,0.804 -3.287,2.701 -4.384,0.804 -5.479,2.701 -6.576,0.804 -7.672,2.701 -8.769,0.804 l -1.097,1.897 -1.096,-1.897 -1.096,1.897 -1.097,-1.897 -0.306,0.529 0,-0.805 L -13.155,0 -12.058,1.898 -10.962,0 -9.866,1.898 -8.769,0 -7.672,1.898 -6.576,0 -5.479,1.898 -4.384,0 -3.287,1.898 -2.189,0 -1.094,1.898 0,0 Z"
             style="fill:#231f20;fill-opacity:1;fill-rule:nonzero;stroke:none"
             id="path150"
             inkscape:connector-curvature="0" />
        </g>
        <path
           d="m 75.245,610.961 1.754,0 0,5.864 -1.754,0 0,-5.864 z"
           style="fill:#231f20;fill-opacity:1;fill-rule:nonzero;stroke:none"
           id="path152"
           inkscape:connector-curvature="0" />
        <path
           d="m 203.852,610.961 1.754,0 0,5.864 -1.754,0 0,-5.864 z"
           style="fill:#231f20;fill-opacity:1;fill-rule:nonzero;stroke:none"
           id="path154"
           inkscape:connector-curvature="0" />
        <g
           id="g156"
           transform="translate(140.4258,618.6499)">
          <path
             d="m 0,0 c -26.351,-0.007 -49.834,-5.312 -58.664,-13.224 l 117.327,0 C 49.834,-5.312 26.351,-0.007 0,0"
             style="fill:#231f20;fill-opacity:1;fill-rule:nonzero;stroke:none"
             id="path158"
             inkscape:connector-curvature="0" />
        </g>
        <g
           id="g160"
           transform="translate(219.6729,597.2944)">
          <path
             d="m 0,0 0.308,0.529 0,0.804 L 0,0.802 -1.094,2.7 -2.189,0.802 -3.287,2.7 -4.384,0.802 -5.479,2.7 -6.576,0.802 -7.672,2.7 -8.769,0.802 -9.866,2.7 -10.962,0.802 -12.058,2.7 l -1.097,-1.898 -0.306,0.529 0,-0.803 L -13.155,0 -12.058,1.897 -10.962,0 -9.866,1.897 -8.769,-0.001 -7.672,1.897 -6.576,0 -5.479,1.897 -4.384,0 -3.287,1.897 -2.189,0 -1.094,1.897 0,0 Z"
             style="fill:#231f20;fill-opacity:1;fill-rule:nonzero;stroke:none"
             id="path162"
             inkscape:connector-curvature="0" />
        </g>
        <g
           id="g164"
           transform="translate(219.6729,612.5425)">
          <path
             d="m 0,0 0.308,0.531 0,0.805 L 0,0.805 -1.094,2.702 -2.189,0.805 -3.287,2.702 -4.384,0.805 -5.479,2.702 -6.576,0.805 -7.672,2.702 -8.769,0.805 l -1.097,1.897 -1.096,-1.897 -1.096,1.897 -1.097,-1.897 -0.306,0.528 0,-0.804 L -13.155,0 -12.058,1.9 -10.962,0 -9.866,1.9 -8.769,0 -7.672,1.9 -6.576,0 -5.479,1.9 -4.384,0 -3.287,1.9 -2.189,0 -1.094,1.9 0,0 Z"
             style="fill:#231f20;fill-opacity:1;fill-rule:nonzero;stroke:none"
             id="path166"
             inkscape:connector-curvature="0" />
        </g>
        <g
           id="g168"
           transform="translate(219.6729,614.7222)">
          <path
             d="m 0,0 0.308,0.53 0,0.805 L 0,0.803 -1.094,2.702 -2.189,0.803 -3.287,2.702 -4.384,0.803 -5.479,2.702 -6.576,0.803 -7.672,2.702 -8.769,0.803 l -1.097,1.899 -1.096,-1.899 -1.096,1.899 -1.097,-1.899 -0.306,0.528 0,-0.803 L -13.155,0 -12.058,1.899 -10.962,0 -9.866,1.899 -8.769,0 -7.672,1.899 -6.576,0 -5.479,1.899 -4.384,0 -3.287,1.899 -2.189,0 -1.094,1.899 0,0 Z"
             style="fill:#231f20;fill-opacity:1;fill-rule:nonzero;stroke:none"
             id="path170"
             inkscape:connector-curvature="0" />
        </g>
        <g
           id="g172"
           transform="translate(219.6729,616.9009)">
          <path
             d="m 0,0 0.308,0.529 0,0.805 L 0,0.802 -1.094,2.701 -2.189,0.802 -3.287,2.701 -4.384,0.802 -5.479,2.701 -6.576,0.802 -7.672,2.701 -8.769,0.802 l -1.097,1.899 -1.096,-1.899 -1.096,1.899 -1.097,-1.899 -0.306,0.529 0,-0.803 L -13.155,0 -12.058,1.898 -10.962,0 -9.866,1.898 -8.769,0 -7.672,1.898 -6.576,0 -5.479,1.898 -4.384,0 -3.287,1.898 -2.189,0 -1.094,1.898 0,0 Z"
             style="fill:#231f20;fill-opacity:1;fill-rule:nonzero;stroke:none"
             id="path174"
             inkscape:connector-curvature="0" />
        </g>
        <g
           id="g176"
           transform="translate(219.6729,603.8296)">
          <path
             d="m 0,0 0.308,0.53 0,0.803 L 0,0.802 -1.094,2.701 -2.189,0.802 -3.287,2.701 -4.384,0.802 -5.479,2.701 -6.576,0.802 -7.672,2.701 -8.769,0.802 l -1.097,1.899 -1.096,-1.899 -1.096,1.899 -1.097,-1.899 -0.306,0.529 0,-0.803 L -13.155,0 -12.058,1.898 -10.962,0 -9.866,1.898 -8.769,0 -7.672,1.898 -6.576,0 -5.479,1.898 -4.384,0 -3.287,1.898 -2.189,0 -1.094,1.898 0,0 Z"
             style="fill:#231f20;fill-opacity:1;fill-rule:nonzero;stroke:none"
             id="path178"
             inkscape:connector-curvature="0" />
        </g>
        <g
           id="g180"
           transform="translate(219.6729,606.0083)">
          <path
             d="m 0,0 0.308,0.528 0,0.806 L 0,0.803 -1.094,2.701 -2.189,0.803 -3.287,2.701 -4.384,0.803 -5.479,2.701 -6.576,0.803 -7.672,2.701 -8.769,0.803 l -1.097,1.898 -1.096,-1.898 -1.096,1.898 -1.097,-1.898 -0.306,0.529 0,-0.805 L -13.155,0 -12.058,1.897 -10.962,0 -9.866,1.897 -8.769,-0.001 -7.672,1.897 -6.576,0 -5.479,1.897 -4.384,0 -3.287,1.897 -2.189,0 -1.094,1.897 0,0 Z"
             style="fill:#231f20;fill-opacity:1;fill-rule:nonzero;stroke:none"
             id="path182"
             inkscape:connector-curvature="0" />
        </g>
        <g
           id="g184"
           transform="translate(219.6729,608.186)">
          <path
             d="m 0,0 0.308,0.53 0,0.805 L 0,0.803 l -1.094,1.9 -1.095,-1.9 -1.098,1.9 -1.097,-1.9 -1.095,1.9 -1.097,-1.9 -1.096,1.9 -1.097,-1.9 -1.097,1.9 -1.096,-1.9 -1.096,1.9 -1.097,-1.9 -0.306,0.529 0,-0.804 L -13.155,0 -12.058,1.9 -10.962,0 -9.866,1.9 -8.769,0 -7.672,1.9 -6.576,0 -5.479,1.9 -4.384,0 -3.287,1.9 -2.189,0 -1.094,1.9 0,0 Z"
             style="fill:#231f20;fill-opacity:1;fill-rule:nonzero;stroke:none"
             id="path186"
             inkscape:connector-curvature="0" />
        </g>
        <g
           id="g188"
           transform="translate(219.6729,610.3657)">
          <path
             d="m 0,0 0.308,0.53 0,0.803 L 0,0.801 l -1.094,1.9 -1.095,-1.9 -1.098,1.9 -1.097,-1.9 -1.095,1.9 -1.097,-1.9 -1.096,1.9 -1.097,-1.9 -1.097,1.9 -1.096,-1.9 -1.096,1.9 -1.097,-1.9 -0.306,0.529 0,-0.802 L -13.155,0 -12.058,1.898 -10.962,0 -9.866,1.898 -8.769,0 -7.672,1.898 -6.576,0 -5.479,1.898 -4.384,0 -3.287,1.898 -2.189,0 -1.094,1.898 0,0 Z"
             style="fill:#231f20;fill-opacity:1;fill-rule:nonzero;stroke:none"
             id="path190"
             inkscape:connector-curvature="0" />
        </g>
        <g
           id="g192"
           transform="translate(140.4258,648.186)">
          <path
             d="M 0,0 C 1.26,0 2.284,1.025 2.284,2.285 2.284,3.544 1.26,4.568 0,4.568 -1.26,4.568 -2.283,3.544 -2.283,2.285 -2.283,1.025 -1.26,0 0,0"
             style="fill:#231f20;fill-opacity:1;fill-rule:nonzero;stroke:none"
             id="path194"
             inkscape:connector-curvature="0" />
        </g>
        <g
           id="g196"
           transform="translate(220.3516,650.5972)">
          <path
             d="m 0,0 c 0.014,-0.001 0.026,-0.001 0.04,-0.001 2.921,0 5.298,2.317 5.298,5.165 0,2.849 -2.377,5.166 -5.298,5.166 -1.42,0 -2.796,-0.571 -3.794,-1.573 C -3.645,8.651 -3.541,8.552 -3.443,8.458 -3.09,8.119 -2.811,7.852 -2.565,7.553 -0.918,5.544 -0.06,3.672 0.136,1.661 0.181,1.213 0.143,0.707 0.017,0.069 0.012,0.045 0.007,0.021 0,0"
             style="fill:#231f20;fill-opacity:1;fill-rule:nonzero;stroke:none"
             id="path198"
             inkscape:connector-curvature="0" />
        </g>
        <g
           id="g200"
           transform="translate(171.457,669.6548)">
          <path
             d="m 0,0 c -0.037,0 -0.098,0.001 -0.16,0.001 -1.074,0 -1.983,-0.469 -2.778,-1.433 C -3.91,-2.61 -5.055,-3.673 -6.163,-4.7 -6.457,-4.973 -6.75,-5.245 -7.041,-5.52 -7.053,-5.53 -7.065,-5.541 -7.078,-5.552 10.595,-16.387 20.142,-24.915 22.08,-31.601 l 6.19,13.324 c 0.033,0.648 -0.216,1.229 -0.761,1.777 -0.569,0.571 -1.168,1.133 -1.748,1.676 -2.392,2.167 -4.999,4.222 -7.749,6.107 C 11.888,-4.518 5.491,-1.423 0,0"
             style="fill:#231f20;fill-opacity:1;fill-rule:nonzero;stroke:none"
             id="path202"
             inkscape:connector-curvature="0" />
        </g>
        <g
           id="g204"
           transform="translate(74.334,614.7222)">
          <path
             d="m 0,0 0.305,0.528 0,0.802 L 0,0.803 -1.097,2.702 -2.192,0.803 -3.289,2.702 -4.385,0.803 -5.484,2.702 -6.578,0.803 -7.674,2.702 -8.771,0.803 l -1.096,1.899 -1.096,-1.899 -1.098,1.899 -1.095,-1.899 -0.307,0.531 0,-0.804 L -13.156,0 -12.061,1.899 -10.963,0 -9.867,1.899 -8.771,0 -7.674,1.899 -6.578,0 -5.484,1.899 -4.385,0 -3.289,1.899 -2.192,0 -1.097,1.899 0,0 Z"
             style="fill:#231f20;fill-opacity:1;fill-rule:nonzero;stroke:none"
             id="path206"
             inkscape:connector-curvature="0" />
        </g>
        <g
           id="g208"
           transform="translate(244.1543,690.7173)">
          <path
             d="M 0,0 C -0.3,0.405 -0.599,0.809 -0.904,1.208 L -2.767,-3.257 0.442,-6.901 C 0.86,-6.496 1.616,-5.347 2.55,-3.695 2.052,-3.051 1.597,-2.359 1.156,-1.69 0.786,-1.128 0.403,-0.548 0,0"
             style="fill:#231f20;fill-opacity:1;fill-rule:nonzero;stroke:none"
             id="path210"
             inkscape:connector-curvature="0" />
        </g>
        <g
           id="g212"
           transform="translate(115.5625,664.9507)">
          <path
             d="M 0,0 C -1.109,1.028 -2.256,2.093 -3.23,3.272 -4.069,4.291 -5.037,4.754 -6.193,4.7 -11.657,3.282 -18.055,0.187 -24.18,-4.013 c -2.75,-1.884 -5.357,-3.94 -7.75,-6.109 -0.578,-0.541 -1.177,-1.103 -1.747,-1.674 -0.544,-0.546 -0.792,-1.128 -0.76,-1.777 l 6.19,-13.323 c 1.937,6.685 11.484,15.213 29.157,26.048 C 0.898,-0.837 0.887,-0.827 0.875,-0.817 0.584,-0.542 0.293,-0.271 0,0"
             style="fill:#231f20;fill-opacity:1;fill-rule:nonzero;stroke:none"
             id="path214"
             inkscape:connector-curvature="0" />
        </g>
        <g
           id="g216"
           transform="translate(140.4258,653.4419)">
          <path
             d="m 0,0 c 1.639,0 2.973,-1.333 2.973,-2.971 0,-1.638 -1.334,-2.972 -2.973,-2.972 -1.639,0 -2.972,1.334 -2.972,2.972 C -2.972,-1.333 -1.639,0 0,0 m -23.217,10.302 c -21.352,-13.05 -31.226,-23.099 -29.351,-29.87 2.13,-7.692 19.591,-11.591 51.896,-11.591 l 1.343,0 c 32.304,0 49.766,3.899 51.899,11.591 1.874,6.77 -8,16.819 -29.35,29.87 -0.163,-0.036 -0.288,-0.039 -0.39,-0.01 -3.909,1.024 -8.004,1.182 -11.536,1.248 C 7.529,11.608 3.729,11.645 0,11.647 -3.729,11.645 -7.527,11.608 -11.293,11.54 c -3.531,-0.066 -7.627,-0.224 -11.537,-1.249 -0.102,-0.026 -0.226,-0.024 -0.387,0.011"
             style="fill:#231f20;fill-opacity:1;fill-rule:nonzero;stroke:none"
             id="path218"
             inkscape:connector-curvature="0" />
        </g>
        <g
           id="g220"
           transform="translate(36.5195,670.937)">
          <path
             d="m 0,0 c 0.232,-0.449 0.469,-0.897 0.704,-1.345 1.54,-2.926 3.133,-5.953 3.986,-9.292 0.718,-2.811 2.704,-4.251 5.903,-4.278 0.087,-0.001 0.173,-0.005 0.249,-0.011 0.531,1.807 1.129,3.222 1.775,4.208 -0.013,0.225 -0.06,0.401 -0.084,0.435 -0.352,0.229 -7.643,6.795 -8.631,8.57 -0.466,0.841 0.301,1.841 0.309,1.851 L 7.371,3.93 C 7.436,4.008 7.533,4.053 7.639,4.053 7.78,4.042 7.881,3.976 7.936,3.873 l 0.439,-0.8 c 0.748,-1.09 3.418,-3.764 3.443,-3.791 l 4.838,-4.146 c 0.626,0.668 2.436,2.478 4.453,3.402 -0.11,0.495 -0.456,2.13 -0.754,4.368 L 20.301,2.99 c -0.934,1.426 -3.906,9.088 -4.031,9.413 -1.088,4.402 -2.927,7.076 -5.47,7.961 -0.623,0.218 -1.298,0.327 -2.005,0.327 -2.66,0 -5.149,-1.534 -5.969,-2.094 L 3.744,16.39 -0.113,12.009 -0.34,12.101 c -0.203,0.083 -0.453,0.318 -0.783,0.736 C -1.893,12.55 -2.295,9.352 -2.176,4.42 -1.544,3.051 -0.832,1.604 0,0"
             style="fill:#231f20;fill-opacity:1;fill-rule:nonzero;stroke:none"
             id="path222"
             inkscape:connector-curvature="0" />
        </g>
        <g
           id="g224"
           transform="translate(48.8525,653.7993)">
          <path
             d="m 0,0 c 2.938,-2.716 5.788,-4.709 8.714,-6.095 2.493,-1.183 4.598,-1.735 6.625,-1.735 0.092,0 0.183,0.002 0.275,0.004 1.192,0.032 2.459,0.145 3.726,1.104 -0.181,0.152 -0.349,0.308 -0.513,0.459 -0.397,0.369 -0.773,0.718 -1.197,0.868 -1.693,0.604 -3.349,1.059 -4.922,1.353 -0.209,0.039 -0.383,0.096 -0.542,0.178 -0.209,-0.02 -0.387,-0.029 -0.558,-0.029 -3.3,0 -5.986,2.626 -5.986,5.855 0,3.227 2.686,5.853 5.986,5.853 1.771,0 3.44,-0.76 4.58,-2.087 0.907,-1.051 1.405,-2.388 1.405,-3.766 0,-0.525 -0.072,-1.051 -0.217,-1.56 0.093,-0.322 0.238,-0.577 0.459,-0.802 0.967,-0.979 1.875,-1.862 2.778,-2.7 0.177,-0.164 0.406,-0.291 0.671,-0.436 0.1,-0.055 0.203,-0.112 0.313,-0.175 0.646,2.756 0.273,5.489 -1.139,8.352 -0.896,1.82 -1.979,3.582 -3.027,5.286 -0.33,0.539 -0.66,1.076 -0.986,1.615 l -4.389,3.824 c -0.311,0.124 -0.652,0.187 -1.013,0.187 -2.894,0 -6.396,-3.944 -6.43,-3.984 C 4.495,11.432 4.269,11.415 4.13,11.534 l -5.11,4.38 c -0.035,0.033 -2.732,2.725 -3.564,3.935 L -4.757,20.238 -7.582,16.85 C -7.634,16.776 -8.052,16.16 -7.829,15.758 -6.933,14.146 0.282,7.645 0.609,7.403 0.937,7.186 0.974,6.572 0.974,6.319 0.974,6.249 0.952,6.182 0.913,6.125 0.258,5.155 -0.376,3.623 -0.921,1.694 -0.861,1.562 -0.806,1.43 -0.752,1.303 -0.524,0.766 -0.327,0.303 0,0"
             style="fill:#231f20;fill-opacity:1;fill-rule:nonzero;stroke:none"
             id="path226"
             inkscape:connector-curvature="0" />
        </g>
        <g
           id="g228"
           transform="translate(233.7393,656.022)">
          <path
             d="m 0,0 c 3.199,0.027 5.186,1.467 5.903,4.278 0.851,3.333 2.441,6.355 3.978,9.277 0.238,0.453 0.476,0.905 0.712,1.36 0.806,1.552 1.518,2.998 2.177,4.42 0.12,4.926 -0.283,8.123 -1.052,8.416 -0.326,-0.411 -0.583,-0.652 -0.783,-0.734 l -0.228,-0.093 -3.858,4.381 0.919,2.207 c -0.82,0.56 -3.305,2.094 -5.971,2.094 -0.707,0 -1.382,-0.109 -2.005,-0.327 -2.544,-0.886 -4.382,-3.56 -5.463,-7.946 -0.131,-0.341 -3.104,-8.006 -4.034,-9.428 l -0.056,-0.086 c -0.268,-2.013 -0.578,-3.56 -0.755,-4.366 2.032,-0.93 3.83,-2.735 4.452,-3.402 l 4.844,4.152 c 0.02,0.02 2.679,2.683 3.447,3.796 l 0.431,0.789 c 0.054,0.102 0.155,0.169 0.271,0.179 l 0.004,0 c 0.13,0 0.227,-0.045 0.292,-0.123 L 6.381,15.056 C 6.464,14.945 7.136,14.001 6.691,13.202 5.716,11.445 -1.584,4.865 -1.958,4.615 -1.964,4.597 -2.01,4.427 -2.023,4.196 -1.375,3.207 -0.777,1.792 -0.247,-0.01 -0.172,-0.005 -0.087,-0.001 0,0"
             style="fill:#231f20;fill-opacity:1;fill-rule:nonzero;stroke:none"
             id="path230"
             inkscape:connector-curvature="0" />
        </g>
        <g
           id="g232"
           transform="translate(232.7568,655.1108)">
          <path
             d="m 0,0 c 0.053,0.125 0.106,0.253 0.164,0.383 -0.554,1.958 -1.172,3.449 -1.836,4.432 -0.039,0.061 -0.059,0.127 -0.059,0.193 0,0.253 0.036,0.866 0.368,1.088 0.32,0.234 7.521,6.707 8.435,8.35 0.238,0.427 -0.243,1.087 -0.248,1.094 L 4,18.926 3.794,18.549 C 3.056,17.475 0.894,15.275 0.248,14.626 l -0.024,-0.023 -5.111,-4.38 c -0.135,-0.12 -0.366,-0.101 -0.482,0.036 -0.034,0.039 -3.537,3.982 -6.431,3.982 -0.361,0 -0.701,-0.062 -1.012,-0.186 l -4.391,-3.825 c -0.327,-0.544 -0.662,-1.088 -0.996,-1.633 -1.044,-1.699 -2.123,-3.454 -3.016,-5.268 -1.411,-2.862 -1.784,-5.597 -1.139,-8.352 0.109,0.063 0.212,0.12 0.31,0.173 0.266,0.147 0.495,0.274 0.674,0.439 0.911,0.846 1.846,1.755 2.778,2.7 0.218,0.223 0.364,0.479 0.458,0.802 -0.143,0.509 -0.217,1.033 -0.217,1.559 0,1.378 0.498,2.716 1.404,3.767 1.142,1.326 2.813,2.087 4.582,2.087 3.301,0 5.986,-2.626 5.986,-5.854 0,-3.228 -2.685,-5.854 -5.986,-5.854 -0.171,0 -0.349,0.009 -0.558,0.028 -0.158,-0.081 -0.332,-0.137 -0.544,-0.178 -1.571,-0.293 -3.227,-0.749 -4.921,-1.352 -0.424,-0.15 -0.798,-0.498 -1.195,-0.866 -0.164,-0.153 -0.333,-0.31 -0.514,-0.461 1.265,-0.959 2.533,-1.072 3.724,-1.105 0.093,-0.002 0.185,-0.004 0.276,-0.004 l 0.001,0 c 2.027,0 4.132,0.552 6.626,1.736 2.923,1.385 5.774,3.379 8.714,6.094 C -0.428,-1.008 -0.229,-0.54 0,0"
             style="fill:#231f20;fill-opacity:1;fill-rule:nonzero;stroke:none"
             id="path234"
             inkscape:connector-curvature="0" />
        </g>
        <g
           id="g236"
           transform="translate(221.5059,689.9829)">
          <path
             d="m 0,0 c -2.312,-4.339 -0.585,-10.848 -0.114,-12.414 l 2.277,0.788 c 0.02,0.733 0.029,1.537 0.029,2.52 0.002,1.615 0.004,3.283 0.15,4.827 0.245,2.598 1.093,5.657 1.835,7.747 C 2.29,2.828 0.886,1.662 0,0"
             style="fill:#231f20;fill-opacity:1;fill-rule:nonzero;stroke:none"
             id="path238"
             inkscape:connector-curvature="0" />
        </g>
        <g
           id="g240"
           transform="translate(193.3633,658.9585)">
          <path
             d="M 0,0 1.785,3.382 C 0.539,4.213 -2.135,6.07 -2.776,7.119 l -5.161,-1.75 c 1.509,-0.891 3,-1.84 4.431,-2.822 C -2.313,1.73 -1.134,0.874 0,0"
             style="fill:#231f20;fill-opacity:1;fill-rule:nonzero;stroke:none"
             id="path242"
             inkscape:connector-curvature="0" />
        </g>
        <g
           id="g244"
           transform="translate(248.3711,679.771)">
          <path
             d="M 0,0 C 0.865,2.289 0.447,4.589 -1.209,6.661 -1.712,5.78 -2.14,5.088 -2.512,4.553 -1.587,3.943 -1.126,1.481 -1.138,-2.776 -0.686,-1.741 -0.32,-0.848 0,0"
             style="fill:#231f20;fill-opacity:1;fill-rule:nonzero;stroke:none"
             id="path246"
             inkscape:connector-curvature="0" />
        </g>
        <g
           id="g248"
           transform="translate(36.6982,690.7173)">
          <path
             d="m 0,0 c -0.409,-0.553 -0.794,-1.14 -1.168,-1.707 -0.436,-0.664 -0.888,-1.35 -1.38,-1.988 0.934,-1.653 1.69,-2.802 2.106,-3.206 L 2.766,-3.257 0.905,1.208 C 0.599,0.809 0.299,0.405 0,0"
             style="fill:#231f20;fill-opacity:1;fill-rule:nonzero;stroke:none"
             id="path250"
             inkscape:connector-curvature="0" />
        </g>
        <g
           id="g252"
           transform="translate(217.8467,691.2925)">
          <path
             d="m 0,0 c -0.464,-0.145 -1.123,-0.384 -1.502,-0.8 -0.405,-0.445 -0.863,-0.835 -1.4,-1.189 -0.501,-0.749 -1.658,-2.739 -1.922,-5.452 -0.461,-4.728 1.951,-9.552 6.976,-13.956 0.314,0.089 0.646,0.135 0.988,0.135 0.501,0 1.036,-0.097 1.59,-0.29 0.168,0.772 0.711,3.429 1.001,6.754 0.029,0.322 0.04,0.667 0.053,1.001 l 0.004,0.122 -2.682,-0.927 -0.11,0.327 C 2.884,-13.948 0.281,-6.19 3.052,-0.988 3.6,0.046 4.34,0.912 5.261,1.596 4.829,1.466 4.398,1.336 3.967,1.207 2.665,0.815 1.318,0.412 0,0"
             style="fill:#231f20;fill-opacity:1;fill-rule:nonzero;stroke:none"
             id="path254"
             inkscape:connector-curvature="0" />
        </g>
        <g
           id="g256"
           transform="translate(209.9316,687.2202)">
          <path
             d="m 0,0 c -6.354,-2.328 -13.3,-3.961 -21.85,-5.136 -0.078,-0.145 -0.172,-0.3 -0.256,-0.435 -0.119,-0.188 -0.476,-0.757 -0.418,-0.879 0.008,-0.011 0.083,-0.053 0.275,-0.069 2.205,-0.186 4.458,-0.283 6.638,-0.376 l 0.265,-0.011 c 1.893,-0.084 3.849,-0.17 5.77,-0.317 l 0.705,-0.049 c 1.609,-0.112 3.266,-0.226 4.738,-0.801 1.077,-0.422 2.073,-1.369 2.733,-2.6 0.76,-1.417 1.482,-2.483 2.338,-3.454 1.524,-1.731 3.786,-3.334 6.914,-4.897 l 1.563,1.361 C -0.01,-9.268 2.195,-1.748 3.842,1.428 2.989,1.021 2.084,0.716 1.204,0.418 0.8,0.281 0.397,0.146 0,0"
             style="fill:#231f20;fill-opacity:1;fill-rule:nonzero;stroke:none"
             id="path258"
             inkscape:connector-curvature="0" />
        </g>
        <g
           id="g260"
           transform="translate(186.123,681.8198)">
          <path
             d="m 0,0 c -1.687,-0.21 -3.205,-0.602 -4.509,-1.164 -4.397,-1.888 -6.198,-6.226 -4.483,-10.794 0.176,-0.467 0.379,-0.923 0.614,-1.451 l 0.107,-0.241 c 2.206,-0.938 4.485,-2.078 6.776,-3.387 l 6.042,2.051 c 0.036,0.011 0.071,0.017 0.107,0.017 0.074,0 0.143,-0.022 0.202,-0.065 C 4.947,-15.098 5,-15.2 5,-15.314 c 0,-0.326 1.995,-2.003 4.664,-3.763 0.148,-0.099 0.197,-0.29 0.116,-0.447 l -1.892,-3.585 c 6.474,3.184 13.429,5.569 21.249,7.285 l 1.966,1.714 c -3.083,1.565 -5.332,3.178 -6.872,4.927 -0.896,1.019 -1.645,2.123 -2.429,3.585 -0.585,1.089 -1.451,1.921 -2.378,2.284 -1.381,0.54 -2.984,0.649 -4.534,0.754 l -0.709,0.051 c -1.997,0.153 -4.03,0.24 -5.995,0.325 -2.206,0.096 -4.466,0.194 -6.685,0.38 -0.429,0.037 -0.7,0.183 -0.832,0.448 -0.225,0.45 0.095,0.983 0.42,1.502 L 0.914,0.122 C 0.609,0.081 0.306,0.039 0,0"
             style="fill:#231f20;fill-opacity:1;fill-rule:nonzero;stroke:none"
             id="path262"
             inkscape:connector-curvature="0" />
        </g>
        <g
           id="g264"
           transform="translate(238.7695,696.2388)">
          <path
             d="m 0,0 c -2.279,1.346 -4.258,1.864 -6.299,1.683 -2.138,-0.199 -3.861,-1.259 -5.268,-3.241 -0.127,-0.179 -0.306,-0.358 -0.516,-0.517 -0.823,-2.09 -1.875,-5.562 -2.154,-8.525 -0.142,-1.512 -0.144,-3.164 -0.146,-4.761 l 0,-0.077 c -0.002,-1.473 -0.004,-2.998 -0.122,-4.366 -0.019,-0.224 -0.041,-0.444 -0.062,-0.662 0.716,1.57 1.812,4.22 3.14,7.605 0.046,0.118 0.073,0.184 0.075,0.189 1.126,4.59 3.111,7.418 5.891,8.385 0.709,0.247 1.471,0.372 2.264,0.372 2.716,0 5.162,-1.431 6.207,-2.139 l 0.984,2.362 C 3.049,-2.508 1.746,-1.033 0,0"
             style="fill:#231f20;fill-opacity:1;fill-rule:nonzero;stroke:none"
             id="path266"
             inkscape:connector-curvature="0" />
        </g>
        <g
           id="g268"
           transform="translate(74.334,627.7935)">
          <path
             d="m 0,0 0.305,0.528 0,0.803 L 0,0.803 -1.097,2.701 -2.192,0.803 -3.289,2.701 -4.385,0.803 -5.484,2.701 -6.578,0.803 -7.674,2.701 -8.771,0.803 l -1.096,1.898 -1.096,-1.898 -1.098,1.898 -1.095,-1.898 -0.307,0.53 0,-0.803 L -13.156,0 -12.061,1.899 -10.963,0 -9.867,1.899 -8.771,0 -7.674,1.899 -6.578,0 -5.484,1.899 -4.385,0 -3.289,1.899 -2.192,0 -1.097,1.899 0,0 Z"
             style="fill:#231f20;fill-opacity:1;fill-rule:nonzero;stroke:none"
             id="path270"
             inkscape:connector-curvature="0" />
        </g>
        <g
           id="g272"
           transform="translate(74.334,625.6147)">
          <path
             d="m 0,0 0.305,0.528 0,0.803 L 0,0.803 -1.097,2.701 -2.192,0.803 -3.289,2.701 -4.385,0.803 -5.484,2.701 -6.578,0.803 -7.674,2.701 -8.771,0.803 l -1.096,1.898 -1.096,-1.898 -1.098,1.898 -1.095,-1.898 -0.307,0.531 0,-0.804 L -13.156,0 -12.061,1.899 -10.963,0 -9.867,1.899 -8.771,0 -7.674,1.899 -6.578,0 -5.484,1.899 -4.385,0 -3.289,1.899 -2.192,0 -1.097,1.899 0,0 Z"
             style="fill:#231f20;fill-opacity:1;fill-rule:nonzero;stroke:none"
             id="path274"
             inkscape:connector-curvature="0" />
        </g>
        <g
           id="g276"
           transform="translate(85.7031,662.3413)">
          <path
             d="m 0,0 1.785,-3.383 c 1.144,0.881 2.322,1.737 3.505,2.547 1.442,0.988 2.934,1.938 4.435,2.822 L 4.563,3.736 C 3.922,2.691 1.246,0.831 0,0"
             style="fill:#231f20;fill-opacity:1;fill-rule:nonzero;stroke:none"
             id="path278"
             inkscape:connector-curvature="0" />
        </g>
        <g
           id="g280"
           transform="translate(33.6904,686.4321)">
          <path
             d="m 0,0 c -1.655,-2.073 -2.074,-4.372 -1.21,-6.661 0.314,-0.83 0.68,-1.723 1.139,-2.776 -0.01,4.258 0.451,6.72 1.373,7.329 C 0.929,-1.57 0.492,-0.862 0,0"
             style="fill:#231f20;fill-opacity:1;fill-rule:nonzero;stroke:none"
             id="path282"
             inkscape:connector-curvature="0" />
        </g>
        <g
           id="g284"
           transform="translate(74.334,623.437)">
          <path
             d="m 0,0 0.305,0.528 0,0.802 L 0,0.802 -1.097,2.701 -2.192,0.802 -3.289,2.701 -4.385,0.802 -5.484,2.701 -6.578,0.802 -7.674,2.701 -8.771,0.802 l -1.096,1.899 -1.096,-1.899 -1.098,1.899 -1.095,-1.899 -0.307,0.53 0,-0.803 L -13.156,0 -12.061,1.898 -10.963,0 -9.867,1.898 -8.771,0 -7.674,1.898 -6.578,0 -5.484,1.898 -4.385,0 -3.289,1.898 -2.192,0 -1.097,1.898 0,0 Z"
             style="fill:#231f20;fill-opacity:1;fill-rule:nonzero;stroke:none"
             id="path286"
             inkscape:connector-curvature="0" />
        </g>
        <g
           id="g288"
           transform="translate(74.334,616.9009)">
          <path
             d="m 0,0 0.305,0.528 0,0.802 L 0,0.802 -1.097,2.701 -2.192,0.802 -3.289,2.701 -4.385,0.802 -5.484,2.701 -6.578,0.802 -7.674,2.701 -8.771,0.802 l -1.096,1.899 -1.096,-1.899 -1.098,1.899 -1.095,-1.899 -0.307,0.531 0,-0.804 L -13.156,0 -12.061,1.898 -10.963,0 -9.867,1.898 -8.771,0 -7.674,1.898 -6.578,0 -5.484,1.898 -4.385,0 -3.289,1.898 -2.192,0 -1.097,1.898 0,0 Z"
             style="fill:#231f20;fill-opacity:1;fill-rule:nonzero;stroke:none"
             id="path290"
             inkscape:connector-curvature="0" />
        </g>
        <g
           id="g292"
           transform="translate(74.334,621.2583)">
          <path
             d="m 0,0 0.305,0.528 0,0.803 L 0,0.803 -1.097,2.701 -2.192,0.803 -3.289,2.701 -4.385,0.803 -5.484,2.701 -6.578,0.803 -7.674,2.701 -8.771,0.803 l -1.096,1.898 -1.096,-1.898 -1.098,1.898 -1.095,-1.898 -0.307,0.53 0,-0.804 L -13.156,0 -12.061,1.898 -10.963,0 -9.867,1.898 -8.771,0 -7.674,1.898 -6.578,0 -5.484,1.898 -4.385,-0.001 -3.289,1.898 -2.192,0 -1.097,1.898 0,0 Z"
             style="fill:#231f20;fill-opacity:1;fill-rule:nonzero;stroke:none"
             id="path294"
             inkscape:connector-curvature="0" />
        </g>
        <g
           id="g296"
           transform="translate(74.334,619.0786)">
          <path
             d="m 0,0 0.305,0.528 0,0.804 L 0,0.804 -1.097,2.701 -2.192,0.804 -3.289,2.701 -4.385,0.804 -5.484,2.701 -6.578,0.804 -7.674,2.701 -8.771,0.804 l -1.096,1.897 -1.096,-1.897 -1.098,1.897 -1.095,-1.897 -0.307,0.53 0,-0.804 L -13.156,0 -12.061,1.899 -10.963,0 -9.867,1.899 -8.771,0 -7.674,1.899 -6.578,0 -5.484,1.899 -4.385,0 -3.289,1.899 -2.192,0 -1.097,1.899 0,0 Z"
             style="fill:#231f20;fill-opacity:1;fill-rule:nonzero;stroke:none"
             id="path298"
             inkscape:connector-curvature="0" />
        </g>
        <g
           id="g300"
           transform="translate(54.166,694.1636)">
          <path
             d="M 0,0 C -0.211,0.16 -0.389,0.339 -0.517,0.518 -1.922,2.5 -3.645,3.56 -5.783,3.758 -7.828,3.94 -9.806,3.421 -12.082,2.075 c -1.747,-1.033 -3.049,-2.507 -3.994,-3.692 l 0.984,-2.362 c 1.043,0.708 3.488,2.139 6.207,2.139 0.793,0 1.555,-0.125 2.264,-0.372 2.777,-0.967 4.762,-3.794 5.897,-8.403 0.001,-10e-4 0.023,-0.056 0.058,-0.146 0.8,-2.039 2.196,-5.545 3.15,-7.633 -0.021,0.218 -0.042,0.44 -0.061,0.665 -0.122,1.408 -0.123,3.019 -0.124,4.441 -10e-4,1.514 -0.002,3.229 -0.146,4.764 C 1.873,-5.551 0.821,-2.083 0,0"
             style="fill:#231f20;fill-opacity:1;fill-rule:nonzero;stroke:none"
             id="path302"
             inkscape:connector-curvature="0" />
        </g>
        <g
           id="g304"
           transform="translate(55.1689,693.4507)">
          <path
             d="m 0,0 c 0.744,-2.095 1.592,-5.155 1.835,-7.747 0.144,-1.534 0.146,-3.191 0.148,-4.793 l 0,-0.034 c 0.002,-0.975 0.012,-1.779 0.033,-2.52 l 2.278,-0.788 C 4.762,-14.312 6.479,-7.79 4.179,-3.468 3.293,-1.807 1.888,-0.641 0,0"
             style="fill:#231f20;fill-opacity:1;fill-rule:nonzero;stroke:none"
             id="path306"
             inkscape:connector-curvature="0" />
        </g>
        <g
           id="g308"
           transform="translate(92.7695,682.0845)">
          <path
             d="m 0,0 c -8.551,1.175 -15.494,2.808 -21.848,5.136 -0.397,0.145 -0.8,0.281 -1.205,0.418 -0.88,0.298 -1.786,0.603 -2.638,1.009 1.646,-3.175 3.851,-10.696 -5.573,-19.09 l 1.564,-1.362 c 3.126,1.564 5.388,3.165 6.912,4.898 0.862,0.978 1.583,2.045 2.338,3.454 0.663,1.231 1.66,2.179 2.735,2.599 1.471,0.575 3.127,0.69 4.729,0.8 l 0.715,0.051 c 1.919,0.147 3.875,0.233 5.767,0.316 l 0.249,0.011 c 2.198,0.094 4.45,0.191 6.657,0.377 0.19,0.016 0.264,0.059 0.276,0.072 0.036,0.078 -0.105,0.374 -0.42,0.875 C 0.159,-0.277 0.07,-0.133 0,0"
             style="fill:#231f20;fill-opacity:1;fill-rule:nonzero;stroke:none"
             id="path310"
             inkscape:connector-curvature="0" />
        </g>
        <g
           id="g312"
           transform="translate(65.9082,689.3032)">
          <path
             d="m 0,0 c -0.541,0.357 -1,0.747 -1.401,1.189 -0.378,0.416 -1.038,0.656 -1.501,0.8 -1.307,0.408 -2.641,0.809 -3.93,1.196 -0.443,0.132 -0.887,0.266 -1.33,0.4 0.918,-0.683 1.658,-1.549 2.209,-2.584 2.756,-5.175 0.167,-12.958 0.055,-13.287 l -0.112,-0.326 -2.681,0.926 0.004,-0.135 c 0.013,-0.329 0.025,-0.67 0.052,-0.988 0.289,-3.322 0.832,-5.982 1,-6.753 0.935,0.323 1.809,0.375 2.581,0.154 5.025,4.404 7.437,9.229 6.976,13.956 C 1.666,-2.835 0.614,-0.92 0,0"
             style="fill:#231f20;fill-opacity:1;fill-rule:nonzero;stroke:none"
             id="path314"
             inkscape:connector-curvature="0" />
        </g>
        <g
           id="g316"
           transform="translate(63.0664,658.1499)">
          <path
             d="m 0,0 c 0.242,0.295 0.518,0.56 0.865,0.894 0.102,0.097 0.209,0.2 0.322,0.31 -0.996,1.001 -2.372,1.573 -3.792,1.573 -2.922,0 -5.299,-2.317 -5.299,-5.166 0,-2.847 2.377,-5.165 5.299,-5.165 0.013,0 0.026,0 0.039,0.001 -0.006,0.022 -0.012,0.045 -0.018,0.07 -0.077,0.406 -0.174,1.011 -0.117,1.592 C -2.506,-3.878 -1.646,-2.006 0,0"
             style="fill:#231f20;fill-opacity:1;fill-rule:nonzero;stroke:none"
             id="path318"
             inkscape:connector-curvature="0" />
        </g>
        <g
           id="g320"
           transform="translate(99.2383,680.6558)">
          <path
             d="m 0,0 c -1.305,0.562 -2.822,0.954 -4.51,1.164 -0.296,0.038 -0.592,0.078 -0.886,0.119 l -0.202,0.028 c 0.325,-0.521 0.645,-1.055 0.42,-1.503 -0.133,-0.265 -0.404,-0.411 -0.832,-0.448 -2.219,-0.186 -4.478,-0.284 -6.662,-0.379 -1.987,-0.085 -4.018,-0.172 -6.016,-0.326 l -0.71,-0.051 c -1.552,-0.105 -3.157,-0.214 -4.536,-0.754 -0.926,-0.363 -1.793,-1.195 -2.378,-2.285 -0.78,-1.457 -1.53,-2.562 -2.428,-3.584 -1.54,-1.75 -3.789,-3.363 -6.87,-4.927 l 1.965,-1.714 c 7.821,-1.717 14.776,-4.101 21.249,-7.285 l -1.892,3.584 c -0.083,0.156 -0.034,0.348 0.112,0.447 2.671,1.759 4.666,3.437 4.666,3.764 0,0.111 0.053,0.215 0.143,0.28 0.091,0.064 0.208,0.082 0.308,0.049 l 6.045,-2.052 c 2.286,1.308 4.566,2.447 6.776,3.387 l 0.105,0.235 c 0.237,0.531 0.441,0.989 0.616,1.457 C 6.199,-6.227 4.398,-1.889 0,0"
             style="fill:#231f20;fill-opacity:1;fill-rule:nonzero;stroke:none"
             id="path322"
             inkscape:connector-curvature="0" />
        </g>
      </g>
    </g>
  </g>
</svg>
