<?xml version="1.0" encoding="UTF-8" standalone="no"?>
<svg
   xmlns:dc="http://purl.org/dc/elements/1.1/"
   xmlns:cc="http://creativecommons.org/ns#"
   xmlns:rdf="http://www.w3.org/1999/02/22-rdf-syntax-ns#"
   xmlns:svg="http://www.w3.org/2000/svg"
   xmlns="http://www.w3.org/2000/svg"
   xmlns:sodipodi="http://sodipodi.sourceforge.net/DTD/sodipodi-0.dtd"
   xmlns:inkscape="http://www.inkscape.org/namespaces/inkscape"
   version="1.1"
   id="svg3706"
   viewBox="0 0 435.78822 163.94785"
   height="46.269726mm"
   width="122.98912mm"
   inkscape:version="0.91 r"
   sodipodi:docname="updroid-banner.svg">
  <sodipodi:namedview
     pagecolor="#ffffff"
     bordercolor="#666666"
     borderopacity="1"
     objecttolerance="10"
     gridtolerance="10"
     guidetolerance="10"
     inkscape:pageopacity="0"
     inkscape:pageshadow="2"
     inkscape:window-width="1174"
     inkscape:window-height="703"
     id="namedview7"
     showgrid="false"
     fit-margin-top="5"
     fit-margin-left="5"
     fit-margin-bottom="5"
     fit-margin-right="5"
     inkscape:zoom="0.44851478"
     inkscape:cx="58.107087"
     inkscape:cy="-279.75891"
     inkscape:window-x="71"
     inkscape:window-y="34"
     inkscape:window-maximized="0"
     inkscape:current-layer="svg3706" />
  <defs
     id="defs3708" />
  <metadata
     id="metadata3711">
    <rdf:RDF>
      <cc:Work
         rdf:about="">
        <dc:format>image/svg+xml</dc:format>
        <dc:type
           rdf:resource="http://purl.org/dc/dcmitype/StillImage" />
        <dc:title></dc:title>
      </cc:Work>
    </rdf:RDF>
  </metadata>
  <g
     style="display:inline"
     id="layer1"
     transform="translate(-27.820172,-27.530938)">
    <path
       id="path354"
       style="fill:#231f20;fill-opacity:1;fill-rule:nonzero;stroke:none"
       d="m 136.15921,150.09095 c 0,1.045 -0.8475,1.8925 -1.8925,1.8925 -1.04375,0 -1.89,-0.8475 -1.89,-1.8925 0,-1.045 0.84625,-1.8925 1.89,-1.8925 1.045,0 1.8925,0.8475 1.8925,1.8925 m 115.77,-84.854997 0.25125,0.0337 c 0.36875,0.0512 0.73875,0.10125 1.10875,0.14875 2.11,0.2625 4.00625,0.7525 5.6375,1.455 5.4975,2.36125 7.74875,7.78375 5.60375,13.4925 -0.22,0.585 -0.475,1.1575 -0.77,1.82125 l -0.13125,0.295 c -2.7625,1.17375 -5.6125,2.59875 -8.47,4.2325 l -7.55625,-2.56375 c -0.125,-0.0425 -0.27125,-0.02 -0.385,0.06 -0.1125,0.0813 -0.17875,0.21125 -0.17875,0.35125 0,0.4075 -2.49375,2.50625 -5.8325,4.70375 -0.1825,0.12375 -0.24375,0.36375 -0.14,0.56 l 2.36375,4.48 c -8.09,-3.98125 -16.78375,-6.96125 -26.56,-9.1075 l -2.45625,-2.14125 c 3.85125,-1.95625 6.6625,-3.9725 8.5875,-6.16 1.1225,-1.2775 2.06,-2.65875 3.035,-4.48 0.73125,-1.3625 1.815,-2.4025 2.9725,-2.855 1.72375,-0.675 3.73,-0.8125 5.66875,-0.94375 l 0.8875,-0.0638 c 2.4975,-0.19125 5.0375,-0.3 7.52125,-0.4075 2.73,-0.11875 5.55375,-0.24125 8.3275,-0.47375 0.535,-0.0463 0.87375,-0.22875 1.04,-0.55875 0.28125,-0.56125 -0.12,-1.22875 -0.525,-1.87875 M 210.33546,102.3696 c -0.0713,0.72625 0.05,1.4825 0.14625,1.99125 0.007,0.03 0.015,0.0587 0.0225,0.0862 -0.0163,10e-4 -0.0325,10e-4 -0.0488,10e-4 -3.6525,0 -6.62375,-2.8975 -6.62375,-6.456247 0,-3.56125 2.97125,-6.4575 6.62375,-6.4575 1.775,0 3.495,0.715 4.74,1.96625 -0.14125,0.1375 -0.275,0.26625 -0.4025,0.38875 -0.43375,0.4175 -0.77875,0.7475 -1.08125,1.11625 -2.0575,2.5075 -3.1325,4.8475 -3.37625,7.363747 m -3.2737,-50.786197 c 0.55375,0.1675 1.1075,0.33375 1.6625,0.5 1.61125,0.48375 3.27875,0.98375 4.91125,1.495 0.57875,0.18 1.40375,0.47875 1.87625,0.99875 0.5025,0.55375 1.07625,1.04 1.7525,1.4875 0.7675,1.15 2.0825,3.54375 2.4025,6.815 0.57625,5.90875 -2.44,11.94 -8.72,17.445 -0.965,-0.27625 -2.0575,-0.21125 -3.22625,0.1925 -0.21,-0.96375 -0.88875,-4.28875 -1.25,-8.4425 -0.0337,-0.39625 -0.0488,-0.8225 -0.065,-1.23375 l -0.006,-0.17 3.3525,1.15875 0.13875,-0.4075 c 0.14125,-0.41125 3.3775,-10.14 -0.0675,-16.60875 -0.68875,-1.29375 -1.61375,-2.3775 -2.76125,-3.23 m 11.665,5.3 c 1.065,0.5075 2.19875,0.89 3.2975,1.2625 0.50625,0.17125 1.01,0.34 1.50625,0.5225 7.9425,2.91 16.62125,4.95125 27.31,6.42 0.0875,0.165 0.19875,0.34625 0.3225,0.54375 0.39375,0.6275 0.57,0.9975 0.525,1.09375 -0.015,0.0175 -0.1075,0.0712 -0.345,0.09 -2.75875,0.23375 -5.57375,0.355 -8.32125,0.47125 l -0.31125,0.0137 c -2.36375,0.105 -4.80875,0.2125 -7.20875,0.395 l -0.89375,0.0638 c -2.0025,0.13875 -4.0725,0.2825 -5.91125,1 -1.34375,0.52625 -2.59,1.71 -3.41875,3.25 -0.94375,1.76125 -1.845,3.09375 -2.9225,4.3175 -1.905,2.165 -4.7325,4.1675 -8.64,6.12125 l -1.955,-1.70125 c 11.78,-10.49375 9.02375,-19.89375 6.96625,-23.86375 m -12.59375,3.68 c -0.30375,-3.23875 -1.3625,-7.065 -2.2925,-9.68375 2.35875,0.80125 4.11625,2.25875 5.2225,4.335 2.87625,5.4025 0.72875,13.555 0.14375,15.5175 l -2.8475,-0.985 c -0.025,-0.92625 -0.0375,-1.93125 -0.04,-3.14875 l 0,-0.0438 c -0.002,-2.0025 -0.005,-4.0725 -0.18625,-5.99125 m -22.4115,-5.60125 -1.23125,-2.95125 c 1.1825,-1.4825 2.81,-3.325 4.99375,-4.61625 2.845,-1.68125 5.31625,-2.33125 7.8725,-2.1025 2.67375,0.2475 4.8275,1.57125 6.58375,4.05 0.16,0.22375 0.3825,0.44625 0.64625,0.64625 1.02625,2.60375 2.34125,6.93875 2.69125,10.65625 0.17875,1.9175 0.18,4.0625 0.18125,5.955 10e-4,1.77625 0.002,3.79125 0.155,5.55 0.025,0.2825 0.05,0.55875 0.0775,0.83125 -1.1925,-2.61 -2.93875,-6.9925 -3.9375,-9.54125 -0.045,-0.1125 -0.0712,-0.18 -0.0725,-0.18125 -1.42,-5.7625 -3.9,-9.29625 -7.37125,-10.505 -0.88625,-0.30875 -1.83875,-0.465 -2.83,-0.465 -3.39875,0 -6.455,1.78875 -7.75875,2.67375 m 44.075,87.877497 0.38,-0.66125 0,1.005 -0.38,0.66 -1.37125,-2.37375 -1.37,2.37375 -1.37,-2.37375 -1.37,2.37375 -1.375,-2.37375 -1.3675,2.37375 -1.36875,-2.37375 -1.3725,2.37375 -1.37,-2.37375 -1.36875,2.37375 -1.3725,-2.37375 -1.37,2.37375 -0.3825,-0.6625 0,-1.005 0.3825,0.66375 1.37,-2.3725 1.3725,2.3725 1.36875,-2.3725 1.37,2.3725 1.3725,-2.3725 1.36875,2.3725 1.3675,-2.3725 1.375,2.3725 1.37,-2.3725 1.37,2.3725 1.37,-2.3725 1.37125,2.3725 z m 0,-2.72375 0.38,-0.66 0,1.0025 -0.38,0.66125 -1.37125,-2.37375 -1.37,2.37375 -1.37,-2.37375 -1.37,2.375 -1.375,-2.375 -1.3675,2.37375 -1.36875,-2.37375 -1.3725,2.37375 -1.37,-2.37375 -1.36875,2.37375 -1.3725,-2.37375 -1.37,2.37375 -0.3825,-0.6625 0,-1.00375 0.3825,0.6625 1.37,-2.3725 1.3725,2.3725 1.36875,-2.3725 1.37,2.3725 1.3725,-2.3725 1.36875,2.3725 1.3675,-2.3725 1.375,2.3725 1.37,-2.3725 1.37,2.3725 1.37,-2.3725 1.37125,2.3725 z m 0,5.4475 0.38,-0.66 0,1.0025 -0.38,0.66 -1.37125,-2.3725 -1.37,2.3725 -1.37,-2.3725 -1.37,2.3725 -1.375,-2.3725 -1.3675,2.3725 -1.36875,-2.3725 -1.3725,2.3725 -1.37,-2.3725 -1.36875,2.3725 -1.3725,-2.3725 -1.37,2.3725 -0.3825,-0.66125 0,-1.005 0.3825,0.66375 1.37,-2.37375 1.3725,2.37375 1.36875,-2.37375 1.37,2.37375 1.3725,-2.37375 1.36875,2.37375 1.3675,-2.37375 1.375,2.37375 1.37,-2.37375 1.37,2.37375 1.37,-2.37375 1.37125,2.37375 z m 0,-8.17 0.38,-0.66 0,1.0025 -0.38,0.66 -1.37125,-2.3725 -1.37,2.3725 -1.37,-2.3725 -1.37,2.3725 -1.375,-2.3725 -1.3675,2.3725 -1.36875,-2.3725 -1.3725,2.3725 -1.37,-2.3725 -1.36875,2.3725 -1.3725,-2.3725 -1.37,2.3725 -0.3825,-0.66125 0,-1.00375 0.3825,0.6625 1.37,-2.37375 1.3725,2.37375 1.36875,-2.37375 1.37,2.37375 1.3725,-2.37375 1.36875,2.37375 1.3675,-2.37375 1.375,2.37375 1.37,-2.37375 1.37,2.37375 1.37,-2.37375 1.37125,2.37375 z m -52.3175,-69.413747 c -1.08,-2.86125 -0.55625,-5.735 1.5125,-8.32625 0.615,1.0775 1.16125,1.9625 1.6275,2.635 -1.1525,0.76125 -1.72875,3.83875 -1.71625,9.16 -0.57375,-1.315 -1.03,-2.43125 -1.42375,-3.46875 m 78.68375,19.30375 c -1.87625,1.10625 -3.74,2.2925 -5.5425,3.52875 -1.47875,1.01125 -2.9525,2.0825 -4.38125,3.18375 l -2.23125,-4.22875 c 1.5575,-1.03875 4.9025,-3.365 5.70375,-4.67125 l 6.45125,2.1875 z m -26.36625,47.387497 0.38,-0.66 0,1.0025 -0.38,0.66 -1.37125,-2.37375 -1.37,2.37375 -1.37,-2.37375 -1.37,2.37375 -1.375,-2.37375 -1.3675,2.37375 -1.36875,-2.37375 -1.3725,2.37375 -1.37,-2.37375 -1.36875,2.37375 -1.3725,-2.37375 -1.37,2.37375 -0.3825,-0.6625 0,-1.00375 0.3825,0.66375 1.37,-2.3725 1.3725,2.3725 1.36875,-2.3725 1.37,2.3725 1.3725,-2.3725 1.36875,2.3725 1.3675,-2.3725 1.375,2.3725 1.37,-2.3725 1.37,2.3725 1.37,-2.3725 1.37125,2.3725 z m 0,-2.72375 0.38,-0.66 0,1.00375 -0.38,0.66 -1.37125,-2.37375 -1.37,2.37375 -1.37,-2.37375 -1.37,2.37375 -1.375,-2.37375 -1.3675,2.37375 -1.36875,-2.37375 -1.3725,2.37375 -1.37,-2.37375 -1.36875,2.37375 -1.3725,-2.37375 -1.37,2.37375 -0.3825,-0.6625 0,-1.00375 0.3825,0.6625 1.37,-2.3725 1.3725,2.3725 1.36875,-2.3725 1.37,2.3725 1.3725,-2.3725 1.36875,2.3725 1.3675,-2.3725 1.375,2.3725 1.37,-2.3725 1.37,2.3725 1.37,-2.3725 1.37125,2.3725 z m 187.7475,-71.302497 c 0.34875,-3.70375 1.66375,-8.04375 2.6925,-10.65625 0.2625,-0.19875 0.48625,-0.42125 0.645,-0.64625 1.75875,-2.4775 3.91375,-3.8025 6.585,-4.05 2.55125,-0.2275 5.025,0.42125 7.87375,2.1025 2.1825,1.29125 3.81125,3.135 4.9925,4.61625 l -1.23,2.95125 c -1.30625,-0.885 -4.36375,-2.67375 -7.75875,-2.67375 -0.99125,0 -1.94375,0.15625 -2.83,0.465 -3.475,1.20875 -5.955,4.74375 -7.3625,10.48125 -0.004,0.006 -0.0375,0.0888 -0.095,0.2375 -1.66,4.23 -3.02875,7.5425 -3.925,9.505 0.0262,-0.2725 0.0537,-0.54625 0.0775,-0.8275 0.1475,-1.71 0.15,-3.61625 0.1525,-5.4575 l 0,-0.095 c 0.002,-1.9975 0.005,-4.06125 0.1825,-5.9525 m -59.2525,19.72125 c -2.1425,-5.71 0.1075,-11.1325 5.605,-13.4925 1.63,-0.7025 3.52625,-1.1925 5.63625,-1.455 0.38125,-0.0488 0.76125,-0.10125 1.1425,-0.1525 l 0.2175,-0.03 c -0.40625,0.64875 -0.805,1.315 -0.52375,1.87875 0.16375,0.33 0.50375,0.5125 1.04,0.55875 2.7725,0.2325 5.59875,0.355 8.355,0.475 2.4575,0.10625 4.9975,0.21625 7.49375,0.40625 l 0.88625,0.0638 c 1.93875,0.13125 3.9425,0.26875 5.6675,0.94375 1.15875,0.4525 2.24125,1.4925 2.9725,2.85375 0.98125,1.8275 1.9175,3.2075 3.0375,4.48125 1.925,2.18625 4.735,4.2025 8.58875,6.16 l -2.4575,2.14125 c -9.77375,2.145 -18.4675,5.12625 -26.56125,9.1075 l 2.36625,-4.48125 c 0.10125,-0.1975 0.0387,-0.43625 -0.145,-0.56 -3.33625,-2.19875 -5.83,-4.29625 -5.83,-4.7025 0,-0.14375 -0.0662,-0.27125 -0.18,-0.35125 -0.0738,-0.0537 -0.16125,-0.0812 -0.2525,-0.0812 -0.045,0 -0.0888,0.008 -0.13375,0.0225 l -7.5525,2.5625 c -2.865,-1.63625 -5.71375,-3.06125 -8.47125,-4.2325 l -0.1325,-0.3025 c -0.295,-0.66 -0.54875,-1.23 -0.76875,-1.81375 m 13.19,-13.55 c -0.24,-0.0187 -0.3325,-0.0712 -0.34375,-0.085 -0.0725,-0.1525 0.375,-0.86375 0.5225,-1.09875 0.105,-0.17 0.2225,-0.3625 0.32125,-0.54375 10.68625,-1.46875 19.36875,-3.51 27.31125,-6.42 0.4975,-0.1825 1,-0.35125 1.505,-0.5225 1.1,-0.3725 2.23125,-0.755 3.2975,-1.2625 -2.0575,3.97 -4.815,13.36875 6.96625,23.86375 l -1.95375,1.70125 c -3.91,-1.95375 -6.7375,-3.9575 -8.64125,-6.12125 -1.07125,-1.21375 -1.9725,-2.54625 -2.92375,-4.3175 -0.82375,-1.53875 -2.06875,-2.7225 -3.41625,-3.25 -1.84,-0.71875 -3.91,-0.86125 -5.9225,-1.00125 l -0.88125,-0.0625 c -2.40125,-0.1825 -4.84625,-0.29 -7.21125,-0.395 l -0.3325,-0.015 c -2.725,-0.115 -5.54125,-0.23625 -8.2975,-0.47 m 31.675,-3.93625 c 0.33125,-3.3925 1.77625,-5.87875 2.4025,-6.815 0.67125,-0.44375 1.24375,-0.93 1.75,-1.4875 0.47375,-0.52 1.2975,-0.81875 1.8775,-0.99875 1.64875,-0.51625 3.33125,-1.02 4.95875,-1.50875 0.54,-0.16125 1.0775,-0.32375 1.6175,-0.48625 -1.15125,0.85375 -2.07625,1.9375 -2.76125,3.23 -3.4625,6.5025 -0.21,16.2 -0.07,16.60875 l 0.13875,0.4075 3.35125,-1.15875 -0.005,0.1525 c -0.015,0.4175 -0.03,0.84875 -0.065,1.25125 -0.3625,4.1575 -1.04125,7.47875 -1.25125,8.4425 -0.69375,-0.24 -1.3625,-0.3625 -1.98875,-0.3625 -0.4275,0 -0.8425,0.0575 -1.23375,0.17 -6.2825,-5.505 -9.2975,-11.53625 -8.72125,-17.445 m -220.95875,0.0438 c -0.52,-0.505 -1.46375,-1.9425 -2.63125,-4.0075 0.615,-0.79875 1.17875,-1.655 1.725,-2.485 0.4675,-0.71 0.94875,-1.44375 1.46,-2.13375 0.37375,-0.5075 0.7475,-1.01125 1.13125,-1.51 l 2.325,5.58125 -4.01,4.555 z m 265.145,5.05625 c -0.40125,1.06 -0.8575,2.17625 -1.4225,3.47 0.015,-5.32125 -0.56125,-8.39875 -1.7175,-9.16125 0.465,-0.66875 1,-1.53375 1.62875,-2.635 2.07,2.59 2.5925,5.465 1.51125,8.32625 m -66.52875,21.78875 -2.23125,4.2275 c -1.4175,-1.0925 -2.89125,-2.16375 -4.3825,-3.18375 -1.79,-1.22875 -3.6525,-2.41375 -5.54,-3.52875 l 6.45125,-2.1875 c 0.8025,1.31125 4.145,3.63375 5.7025,4.6725 m 32.94625,-34.55375 c 1.1075,-2.0775 2.8625,-3.535 5.22125,-4.335 -0.9275,2.6125 -1.9875,6.43625 -2.29375,9.68375 -0.18125,1.93 -0.18375,4.015 -0.18625,6.035 0,1.2275 -0.0125,2.2325 -0.0362,3.14875 l -2.8475,0.985 c -0.58875,-1.9575 -2.74625,-10.09375 0.1425,-15.5175 m 11.975,37.57125 c 0.83,1.22875 1.6025,3.0925 2.29375,5.54 -0.0713,0.1625 -0.13875,0.3225 -0.205,0.47875 -0.28625,0.675 -0.53375,1.259997 -0.94375,1.639997 -3.67625,3.395 -7.23875,5.88625 -10.8925,7.6175 -3.1175,1.48 -5.75,2.17 -8.2825,2.17 l -10e-4,0 c -0.115,0 -0.23,-0.002 -0.34625,-0.005 -1.48875,-0.04 -3.07375,-0.1825 -4.65375,-1.38125 0.225,-0.18875 0.43625,-0.385 0.64125,-0.57625 0.4975,-0.46 0.965,-0.89375 1.495,-1.0825 2.11625,-0.75375 4.18625,-1.3225 6.15125,-1.69 0.265,-0.05 0.48125,-0.12125 0.68,-0.2225 0.26125,0.025 0.4825,0.035 0.69625,0.035 4.12625,0 7.48375,-3.2825 7.48375,-7.317497 0,-4.035 -3.3575,-7.3175 -7.48375,-7.3175 -2.21,0 -4.29875,0.95125 -5.7275,2.60875 -1.13125,1.31375 -1.75375,2.98625 -1.75375,4.70875 0,0.6575 0.0913,1.31375 0.27125,1.94875 -0.1175,0.404997 -0.30125,0.723747 -0.5725,1.002497 -1.16625,1.18125 -2.335,2.31875 -3.47375,3.375 -0.2225,0.20625 -0.51,0.365 -0.8425,0.54875 -0.12125,0.0675 -0.25125,0.1375 -0.38625,0.2175 -0.8075,-3.445 -0.34125,-6.863747 1.42375,-10.441247 1.115,-2.26625 2.46375,-4.46125 3.76875,-6.58375 0.4175,-0.68125 0.83625,-1.36125 1.245,-2.0425 l 5.49,-4.78 c 0.3875,-0.15625 0.8125,-0.23375 1.265,-0.23375 3.61625,0 7.995,4.92875 8.0375,4.9775 0.145,0.17125 0.43375,0.19625 0.60375,0.0462 l 6.3875,-5.475 0.03,-0.03 c 0.8075,-0.81125 3.51,-3.56 4.4325,-4.90375 l 0.2575,-0.47125 3.53125,4.2325 c 0.006,0.009 0.60625,0.83375 0.31,1.3675 -1.1425,2.05375 -10.145,10.145 -10.545,10.4375 -0.415,0.2775 -0.46,1.04375 -0.46,1.36 0,0.0825 0.025,0.165 0.075,0.24125 m 19.27875,-19.28875 c -0.8225,1.7775 -1.7125,3.585 -2.72,5.525 -0.295,0.56875 -0.5925,1.13375 -0.89,1.7 -1.92125,3.6525 -3.90875,7.43 -4.9725,11.59625 -0.8975,3.51375 -3.38,5.31375 -7.37875,5.3475 -0.10875,10e-4 -0.215,0.006 -0.30875,0.0125 -0.66375,-2.2525 -1.41,-4.02125 -2.22125,-5.2575 0.0175,-0.28875 0.075,-0.50125 0.0825,-0.52375 0.4675,-0.3125 9.5925,-8.5375 10.81125,-10.73375 0.55625,-0.99875 -0.28375,-2.17875 -0.3875,-2.3175 l -3.94625,-4.735 c -0.08,-0.0975 -0.20125,-0.15375 -0.365,-0.15375 l -0.004,0 c -0.145,0.0125 -0.27125,0.0963 -0.33875,0.22375 l -0.54,0.98625 c -0.95875,1.39125 -4.2825,4.72 -4.3075,4.745 l -6.05625,5.19 c -0.77625,-0.83375 -3.025,-3.09 -5.56375,-4.2525 0.22125,-1.0075 0.60875,-2.94125 0.94375,-5.4575 l 0.07,-0.1075 c 1.16125,-1.7775 4.87875,-11.35875 5.0425,-11.785 1.35125,-5.4825 3.64875,-8.825 6.82875,-9.9325 0.77875,-0.2725 1.6225,-0.40875 2.50625,-0.40875 3.3325,0 6.43875,1.9175 7.4625,2.6175 l -1.14875,2.75875 4.82375,5.47625 0.28375,-0.11625 c 0.25125,-0.1025 0.57125,-0.40375 0.98,-0.9175 0.96125,0.36625 1.46375,4.3625 1.31375,10.52 M 215.11801,110.2319 c -2.53375,0 -5.165,-0.69 -8.28125,-2.17 -3.6575,-1.73125 -7.21875,-4.2225 -10.8925,-7.6175 -0.40875,-0.37875 -0.655,-0.957497 -0.94,-1.628747 -0.0675,-0.15875 -0.13625,-0.32375 -0.21125,-0.49 0.68125,-2.41 1.47375,-4.32625 2.2925,-5.5375 0.0487,-0.0713 0.0762,-0.155 0.0762,-0.24375 0,-0.31625 -0.045,-1.0825 -0.455,-1.355 -0.41,-0.30125 -9.4275,-8.42875 -10.54875,-10.4425 -0.27875,-0.5025 0.24375,-1.27375 0.30875,-1.365 l 3.53125,-4.23625 0.26625,0.4875 c 1.04,1.5125 4.41125,4.87625 4.455,4.91875 l 6.3875,5.475 c 0.17375,0.14875 0.45625,0.1275 0.60375,-0.045 0.0437,-0.05 4.42125,-4.97875 8.0375,-4.97875 0.45125,0 0.8775,0.0775 1.26625,0.23375 l 5.48625,4.78 c 0.4075,0.67375 0.82,1.345 1.2325,2.01875 1.31,2.13 2.66375,4.3325 3.78375,6.6075 1.765,3.5775 2.23125,6.994997 1.42375,10.439997 -0.1375,-0.0788 -0.26625,-0.15 -0.39125,-0.21875 -0.33125,-0.1825 -0.6175,-0.34125 -0.83875,-0.54625 -1.12875,-1.0475 -2.26375,-2.15 -3.4725,-3.37375 -0.27625,-0.28125 -0.4575,-0.6 -0.57375,-1.003747 0.18125,-0.635 0.27125,-1.2925 0.27125,-1.94875 0,-1.7225 -0.6225,-3.39375 -1.755,-4.7075 -1.42625,-1.65875 -3.5125,-2.61 -5.725,-2.61 -4.12625,0 -7.48375,3.2825 -7.48375,7.3175 0,4.034997 3.3575,7.317497 7.48375,7.317497 0.2125,0 0.435,-0.01 0.69625,-0.035 0.19875,0.1025 0.41625,0.17375 0.6775,0.2225 1.96625,0.3675 4.03625,0.93625 6.1525,1.69 0.53,0.18875 1,0.62375 1.49625,1.085 0.205,0.19 0.415,0.385 0.64125,0.57375 -1.58375,1.19875 -3.1675,1.34125 -4.6575,1.38125 -0.11375,0.003 -0.22875,0.005 -0.34375,0.005 M 185.79171,78.849403 c -0.01,0.0125 -0.96875,1.2625 -0.38625,2.31375 1.235,2.21875 10.34875,10.42625 10.78875,10.7125 0.03,0.0425 0.09,0.2625 0.105,0.54375 -0.8075,1.2325 -1.555,3.00125 -2.21875,5.26 -0.095,-0.007 -0.2025,-0.0125 -0.31125,-0.0137 -3.99875,-0.0337 -6.48125,-1.83375 -7.3775,-5.3475 -1.0675,-4.17375 -3.05875,-7.95625 -4.98375,-11.615 -0.29375,-0.56 -0.58875,-1.12 -0.88,-1.68125 -1.04,-2.005 -1.93,-3.81375 -2.72,-5.525 -0.14875,-6.165 0.355,-10.1625 1.31625,-10.52125 0.4125,0.5225 0.725,0.81625 0.97875,0.92 l 0.28375,0.115 4.82125,-5.47625 -1.1475,-2.75875 c 1.02625,-0.7 4.13625,-2.6175 7.46125,-2.6175 0.88375,0 1.7275,0.13625 2.50625,0.40875 3.17875,1.1075 5.4775,4.44875 6.8375,9.95125 0.15625,0.40625 3.87125,9.98375 5.03875,11.76625 l 0.0687,0.105 c 0.37125,2.7975 0.80375,4.84125 0.94125,5.46 -2.52125,1.155 -4.78375,3.4175 -5.56625,4.2525 l -6.0475,-5.1825 c -0.0312,-0.0337 -3.36875,-3.37625 -4.30375,-4.73875 l -0.54875,-1 c -0.0687,-0.12875 -0.195,-0.21125 -0.37125,-0.225 -0.1325,0 -0.25375,0.0563 -0.335,0.15375 l -3.95,4.74 z m 124.61875,22.041247 c 2.04875,0 3.71625,1.66625 3.71625,3.71375 0,2.04875 -1.6675,3.715 -3.71625,3.715 -2.0475,0 -3.71375,-1.66625 -3.71375,-3.715 0,-2.0475 1.66625,-3.71375 3.71375,-3.71375 m -65.71,24.46 c 2.66375,9.61375 24.49,14.4875 64.87,14.4875 l 1.67875,0 c 40.38,0 62.2075,-4.87375 64.875,-14.4875 2.3425,-8.4625 -10,-21.02375 -36.68875,-37.337497 -0.20375,0.0462 -0.36,0.0488 -0.4875,0.0125 -4.88625,-1.28 -10.00375,-1.47625 -14.42,-1.56 -4.705,-0.085 -9.45625,-0.13 -14.1175,-0.13375 -4.66,0.004 -9.40875,0.0488 -14.11625,0.13375 -4.41375,0.0838 -9.53375,0.28 -14.42125,1.56125 -0.12625,0.0325 -0.28125,0.0312 -0.4825,-0.0138 -26.69125,16.312497 -39.03375,28.873747 -36.69,37.337497 m 4.40625,-33.829997 c 7.65625,-5.24875 15.65375,-9.11875 22.48375,-10.89125 1.445,-0.0675 2.655,0.51125 3.70375,1.785 1.2175,1.475 2.65125,2.805 4.0375,4.09 0.36625,0.34 0.73,0.6775 1.09375,1.0225 0.015,0.0113 0.03,0.0237 0.0438,0.0375 C 258.37801,101.1081 246.44551,111.7681 244.02301,120.1256 l -7.7363,-16.65375 c -0.0412,-0.8125 0.26875,-1.54 0.94875,-2.2225 0.7125,-0.71375 1.46125,-1.416247 2.18375,-2.092497 2.99125,-2.71125 6.25,-5.28 9.6875,-7.63625 m 187.50625,-33.1525 2.32875,-5.58125 c 0.38125,0.49875 0.755,1.0025 1.13,1.51 0.50375,0.685 0.9825,1.41 1.445,2.1125 0.55125,0.83625 1.12,1.70125 1.7425,2.50625 -1.1675,2.06375 -2.1125,3.50125 -2.635,4.0075 l -4.01125,-4.555 z m -208.81625,89.917497 0.38,-0.66 0,1.0025 -0.38,0.66 -1.37125,-2.37375 -1.37,2.37375 -1.37,-2.37375 -1.37,2.37375 -1.375,-2.37375 -1.3675,2.37375 -1.36875,-2.37375 -1.3725,2.37375 -1.37,-2.37375 -1.36875,2.37375 -1.3725,-2.37375 -1.37,2.37375 -0.3825,-0.6625 0,-1.005 0.3825,0.665 1.37,-2.37375 1.3725,2.37375 1.36875,-2.37375 1.37,2.37375 1.3725,-2.37375 1.36875,2.37375 1.3675,-2.37375 1.375,2.37375 1.37,-2.37375 1.37,2.37375 1.37,-2.37375 1.37125,2.37375 z m 112.555,-60.721247 c 0.0163,-0.0137 0.0325,-0.0262 0.0475,-0.04 0.36375,-0.34375 0.73,-0.68375 1.0975,-1.025 1.385,-1.28375 2.815,-2.61125 4.03125,-4.085 0.99375,-1.205 2.12875,-1.79125 3.47125,-1.79125 0.0788,0 0.155,0.001 0.20125,0.001 6.86375,1.77875 14.85875,5.6475 22.51375,10.89625 3.4375,2.35625 6.6975,4.925 9.68625,7.63375 0.725,0.67875 1.475,1.381247 2.185,2.094997 0.68125,0.685 0.9925,1.41125 0.95125,2.2225 l -7.73625,16.65375 c -2.42375,-8.3575 -14.3575,-19.0175 -36.44875,-32.561247 m 69.9875,16.796247 c 0.1575,-0.7975 0.205,-1.43 0.14875,-1.99 -0.24375,-2.513747 -1.3175,-4.853747 -3.37625,-7.364997 -0.30625,-0.37375 -0.65625,-0.7075 -1.0975,-1.13125 -0.1225,-0.1175 -0.25125,-0.2425 -0.38875,-0.37375 1.2475,-1.2525 2.9675,-1.96625 4.7425,-1.96625 3.65125,0 6.6225,2.89625 6.6225,6.4575 0,3.558747 -2.97125,6.456247 -6.6225,6.456247 -0.0163,0 -0.0325,0 -0.05,-0.001 0.009,-0.0275 0.015,-0.0562 0.0213,-0.0862 m -102.78255,0.24375 c 0,-1.57375 1.28,-2.85375 2.85375,-2.85375 1.575,0 2.85625,1.28 2.85625,2.85375 0,1.575 -1.28125,2.85625 -2.85625,2.85625 -1.57375,0 -2.85375,-1.28125 -2.85375,-2.85625 m 101.9125,49.12875 0.385,-0.665 0,1.00375 -0.385,0.6625 -1.36625,-2.37375 -1.37,2.37375 -1.3725,-2.37375 -1.37,2.37375 -1.37,-2.37375 -1.37125,2.37375 -1.36875,-2.37375 -1.37125,2.37375 -1.3725,-2.37375 -1.36875,2.37375 -1.37,-2.37375 -1.3725,2.37375 -0.3825,-0.66 0,-1.0025 0.3825,0.66125 1.3725,-2.375 1.37,2.375 1.36875,-2.375 1.3725,2.375 1.37125,-2.375 1.36875,2.375 1.37125,-2.375 1.37,2.375 1.37,-2.375 1.3725,2.375 1.37,-2.375 1.36625,2.375 z m 0,2.7225 0.385,-0.665 0,1.005 -0.385,0.66375 -1.36625,-2.37625 -1.37,2.37625 -1.3725,-2.37625 -1.37,2.37625 -1.37,-2.37625 -1.37125,2.37625 -1.36875,-2.37625 -1.37125,2.37625 -1.3725,-2.37625 -1.36875,2.37625 -1.37,-2.37625 -1.3725,2.37625 -0.3825,-0.66125 0,-1.005 0.3825,0.6625 1.3725,-2.37625 1.37,2.37625 1.36875,-2.37625 1.3725,2.37625 1.37125,-2.37625 1.36875,2.37625 1.37125,-2.37625 1.37,2.37625 1.37,-2.37625 1.3725,2.37625 1.37,-2.37625 1.36625,2.37625 z m 0,2.7225 0.385,-0.665 0,1.0075 -0.385,0.66 -1.36625,-2.37125 -1.37,2.37125 -1.3725,-2.37125 -1.37,2.37125 -1.37,-2.37125 -1.37125,2.37125 -1.36875,-2.37125 -1.37125,2.3725 -1.3725,-2.3725 -1.36875,2.37125 -1.37,-2.37125 -1.3725,2.37125 -0.3825,-0.65875 0,-1.00625 0.3825,0.6625 1.3725,-2.37375 1.37,2.37375 1.36875,-2.37375 1.3725,2.37375 1.37125,-2.37375 1.36875,2.37375 1.37125,-2.37375 1.37,2.37375 1.37,-2.37375 1.3725,2.37375 1.37,-2.37375 1.36625,2.37375 z m 0,2.72375 0.385,-0.66375 0,1.00375 -0.385,0.6625 -1.36625,-2.3725 -1.37,2.3725 -1.3725,-2.3725 -1.37,2.3725 -1.37,-2.3725 -1.37125,2.3725 -1.36875,-2.3725 -1.37125,2.3725 -1.3725,-2.3725 -1.36875,2.3725 -1.37,-2.3725 -1.3725,2.3725 -0.3825,-0.66 0,-1.00375 0.3825,0.66125 1.3725,-2.37375 1.37,2.37375 1.36875,-2.37375 1.3725,2.37375 1.37125,-2.37375 1.36875,2.37375 1.37125,-2.37375 1.37,2.37375 1.37,-2.37375 1.3725,2.37375 1.37,-2.37375 1.36625,2.37375 z m 0,-16.33875 0.385,-0.665 0,1.00625 -0.385,0.66125 -1.36625,-2.3725 -1.37,2.3725 -1.3725,-2.3725 -1.37,2.3725 -1.37,-2.3725 -1.37125,2.3725 -1.36875,-2.3725 -1.37125,2.3725 -1.3725,-2.3725 -1.36875,2.3725 -1.37,-2.3725 -1.3725,2.3725 -0.3825,-0.66 0,-1.00375 0.3825,0.66125 1.3725,-2.37375 1.37,2.37375 1.36875,-2.37375 1.3725,2.37375 1.37125,-2.37375 1.36875,2.37375 1.37125,-2.37375 1.37,2.37375 1.37,-2.37375 1.3725,2.37375 1.37,-2.37375 1.36625,2.37375 z m 0,2.7225 0.385,-0.66625 0,1.00625 -0.385,0.6625 -1.36625,-2.37375 -1.37,2.37375 -1.3725,-2.37375 -1.37,2.37375 -1.37,-2.37375 -1.37125,2.37375 -1.36875,-2.37375 -1.37125,2.37375 -1.3725,-2.37375 -1.36875,2.37375 -1.37,-2.37375 -1.3725,2.37375 -0.3825,-0.66 0,-1.00375 0.3825,0.66125 1.3725,-2.37375 1.37,2.37375 1.36875,-2.37375 1.3725,2.37375 1.37125,-2.37375 1.36875,2.37375 1.37125,-2.37375 1.37,2.37375 1.37,-2.37375 1.3725,2.37375 1.37,-2.37375 1.36625,2.37375 z m 0,2.72125 0.385,-0.66375 0,1.00625 -0.385,0.66375 -1.36625,-2.375 -1.37,2.375 -1.3725,-2.375 -1.37,2.375 -1.37,-2.375 -1.37125,2.375 -1.36875,-2.375 -1.37125,2.375 -1.3725,-2.375 -1.36875,2.375 -1.37,-2.375 -1.3725,2.375 -0.3825,-0.66125 0,-1.005 0.3825,0.66 1.3725,-2.37125 1.37,2.37125 1.36875,-2.37125 1.3725,2.37125 1.37125,-2.37125 1.36875,2.37125 1.37125,-2.37125 1.37,2.37125 1.37,-2.37125 1.3725,2.37125 1.37,-2.37125 1.36625,2.37125 z m 0,19.06375 0.385,-0.66375 0,1.005 -0.385,0.66125 -1.36625,-2.37125 -1.37,2.37125 -1.3725,-2.37125 -1.37,2.37125 -1.37,-2.37125 -1.37125,2.37125 -1.36875,-2.37125 -1.37125,2.3725 -1.3725,-2.3725 -1.36875,2.37125 -1.37,-2.37125 -1.3725,2.37125 -0.3825,-0.66 0,-1.00375 0.3825,0.66125 1.3725,-2.3725 1.37,2.3725 1.36875,-2.3725 1.3725,2.3725 1.37125,-2.3725 1.36875,2.3725 1.37125,-2.3725 1.37,2.3725 1.37,-2.3725 1.3725,2.3725 1.37,-2.3725 1.36625,2.3725 z M 310.41046,144.3797 c 32.93875,0.009 62.2925,6.63875 73.32875,16.52875 l -146.65875,0 c 11.0375,-9.89 40.3925,-16.52 73.33,-16.52875 m 79.2825,2.28 2.1925,0 0,7.33 -2.1925,0 0,-7.33 z m -160.7575,0 2.1925,0 0,7.33 -2.1925,0 0,-7.33 z m 180.53375,20.6875 0.385,-0.665 0,1.00875 -0.385,0.66 -1.36625,-2.3725 -1.37,2.3725 -1.3725,-2.3725 -1.37,2.3725 -1.37,-2.3725 -1.37125,2.3725 -1.36875,-2.3725 -1.37125,2.3725 -1.3725,-2.3725 -1.36875,2.3725 -1.37,-2.3725 -1.3725,2.3725 -0.3825,-0.66 0,-1.00625 0.3825,0.6625 1.3725,-2.3725 1.37,2.3725 1.36875,-2.3725 1.3725,2.3725 1.37125,-2.3725 1.36875,2.3725 1.37125,-2.3725 1.37,2.3725 1.37,-2.3725 1.3725,2.3725 1.37,-2.3725 1.36625,2.3725 z m -181.6725,-16.34 0.38,-0.65875 0,1.00375 -0.38,0.66125 -1.37125,-2.375 -1.37,2.375 -1.37,-2.375 -1.37,2.375 -1.375,-2.375 -1.3675,2.375 -1.36875,-2.375 -1.3725,2.375 -1.37,-2.375 -1.36875,2.375 -1.3725,-2.375 -1.37,2.375 -0.3825,-0.66375 0,-1.005 0.3825,0.6625 1.37,-2.37125 1.3725,2.37125 1.36875,-2.37125 1.37,2.37125 1.3725,-2.37125 1.36875,2.37125 1.3675,-2.37125 1.375,2.37125 1.37,-2.37125 1.37,2.37125 1.37,-2.37125 1.37125,2.37125 z m 164.88625,-21.375 c 0.18,-1.48 1.4225,-2.58875 2.91,-2.58875 l 11.3125,0 c 1.48625,0 2.73,1.1075 2.91125,2.58625 l -0.3475,0.5975 -1.36625,-2.37375 -1.37,2.37375 -1.3725,-2.37375 -1.37,2.37375 -1.37,-2.37375 -1.37125,2.37375 -1.36875,-2.37375 -1.37125,2.37375 -1.3725,-2.37375 -1.36875,2.37375 -1.37,-2.37375 -1.3725,2.37375 -0.3425,-0.595 z m 15.42,40.79 1.155,2.005 c -0.55625,0.74 -1.42875,1.17875 -2.3525,1.17875 l -11.3125,0 c -0.92375,0 -1.7975,-0.43875 -2.355,-1.18 l 1.16,-2.00375 1.37,2.3725 1.36875,-2.3725 1.3725,2.3725 1.37125,-2.3725 1.36875,2.3725 1.37125,-2.3725 1.37,2.3725 1.37,-2.3725 1.3725,2.3725 1.37,-2.3725 z m 1.36625,-27.5825 0.385,-0.665 0,1.00625 -0.385,0.6625 -1.36625,-2.37375 -1.37,2.37375 -1.3725,-2.37375 -1.37,2.37375 -1.37,-2.37375 -1.37125,2.37375 -1.36875,-2.37375 -1.37125,2.37375 -1.3725,-2.37375 -1.36875,2.37375 -1.37,-2.37375 -1.3725,2.37375 -0.3825,-0.66 0,-1.00625 0.3825,0.6625 1.3725,-2.3725 1.37,2.3725 1.36875,-2.3725 1.3725,2.3725 1.37125,-2.3725 1.36875,2.3725 1.37125,-2.3725 1.37,2.3725 1.37,-2.3725 1.3725,2.3725 1.37,-2.3725 1.36625,2.3725 z m 0,21.78625 0.385,-0.665 0,1.005 -0.385,0.6625 -1.36625,-2.375 -1.37,2.375 -1.3725,-2.375 -1.37,2.375 -1.37,-2.375 -1.37125,2.375 -1.36875,-2.375 -1.37125,2.375 -1.3725,-2.375 -1.36875,2.375 -1.37,-2.375 -1.3725,2.375 -0.3825,-0.66125 0,-1.0025 0.3825,0.66125 1.3725,-2.37375 1.37,2.37375 1.36875,-2.37375 1.3725,2.37375 1.37125,-2.37375 1.36875,2.37375 1.37125,-2.37375 1.37,2.37375 1.37,-2.37375 1.3725,2.37375 1.37,-2.37375 1.36625,2.37375 z m -181.6725,2.72125 0.38,-0.66125 0,1.005 -0.38,0.66 -1.37125,-2.3725 -1.37,2.3725 -1.37,-2.3725 -1.37,2.3725 -1.375,-2.3725 -1.3675,2.3725 -1.36875,-2.3725 -1.3725,2.3725 -1.37,-2.3725 -1.36875,2.3725 -1.3725,-2.3725 -1.37,2.3725 -0.3825,-0.66 0,-1.0075 0.3825,0.66375 1.37,-2.3725 1.3725,2.3725 1.36875,-2.3725 1.37,2.3725 1.3725,-2.3725 1.36875,2.3725 1.3675,-2.3725 1.375,2.3725 1.37,-2.3725 1.37,2.3725 1.37,-2.3725 1.37125,2.3725 z m -2.56625,-40.30375 c 1.48625,0 2.72875,1.10875 2.90875,2.58875 l -0.3425,0.595 -1.37125,-2.37375 -1.37,2.37375 -1.37,-2.37375 -1.37,2.37375 -1.375,-2.37375 -1.3675,2.37375 -1.36875,-2.37375 -1.3725,2.37375 -1.37,-2.37375 -1.36875,2.37375 -1.3725,-2.37375 -1.37,2.37375 -0.34375,-0.59625 c 0.18125,-1.48 1.42375,-2.5875 2.91,-2.5875 l 11.31375,0 z m 2.56625,37.5825 0.38,-0.66 0,1.00125 -0.38,0.66125 -1.37125,-2.375 -1.37,2.375 -1.37,-2.375 -1.37,2.375 -1.375,-2.375 -1.3675,2.375 -1.36875,-2.375 -1.3725,2.375 -1.37,-2.375 -1.36875,2.375 -1.3725,-2.375 -1.37,2.375 -0.3825,-0.6625 0,-1.00375 0.3825,0.66375 1.37,-2.37375 1.3725,2.37375 1.36875,-2.37375 1.37,2.37375 1.3725,-2.37375 1.36875,2.37375 1.3675,-2.37375 1.375,2.37375 1.37,-2.37375 1.37,2.37375 1.37,-2.37375 1.37125,2.37375 z m 0,5.445 0.38,-0.66 0,1.0025 -0.38,0.66 -1.37125,-2.37125 -1.37,2.37125 -1.37,-2.37125 -1.37,2.3725 -1.375,-2.3725 -1.3675,2.37125 -1.36875,-2.37125 -1.3725,2.37125 -1.37,-2.37125 -1.36875,2.37125 -1.3725,-2.37125 -1.37,2.37125 -0.3825,-0.66125 0,-1.00375 0.3825,0.6625 1.37,-2.3725 1.3725,2.3725 1.36875,-2.3725 1.37,2.3725 1.3725,-2.3725 1.36875,2.3725 1.3675,-2.3725 1.375,2.3725 1.37,-2.3725 1.37,2.3725 1.37,-2.3725 1.37125,2.3725 z m 0,-8.16875 0.38,-0.66 0,1.0025 -0.38,0.66 -1.37125,-2.3725 -1.37,2.3725 -1.37,-2.3725 -1.37,2.3725 -1.375,-2.3725 -1.3675,2.3725 -1.36875,-2.3725 -1.3725,2.3725 -1.37,-2.3725 -1.36875,2.3725 -1.3725,-2.3725 -1.37,2.3725 -0.3825,-0.6625 0,-1.0025 0.3825,0.6625 1.37,-2.37375 1.3725,2.37375 1.36875,-2.37375 1.37,2.37375 1.3725,-2.37375 1.36875,2.37375 1.3675,-2.37375 1.375,2.37375 1.37,-2.37375 1.37,2.37375 1.37,-2.37375 1.37125,2.37375 z m 0,-8.16875 0.38,-0.66 0,1.00125 -0.38,0.66 -1.37125,-2.37375 -1.37,2.37375 -1.37,-2.37375 -1.37,2.37375 -1.375,-2.37375 -1.3675,2.37375 -1.36875,-2.37375 -1.3725,2.37375 -1.37,-2.37375 -1.36875,2.37375 -1.3725,-2.37375 -1.37,2.37375 -0.3825,-0.6625 0,-1.0025 0.3825,0.66375 1.37,-2.375 1.3725,2.375 1.36875,-2.375 1.37,2.375 1.3725,-2.375 1.36875,2.375 1.3675,-2.375 1.375,2.375 1.37,-2.375 1.37,2.375 1.37,-2.375 1.37125,2.375 z m 0,5.445 0.38,-0.66125 0,1.005 -0.38,0.65875 -1.37125,-2.37125 -1.37,2.37125 -1.37,-2.37125 -1.37,2.3725 -1.375,-2.3725 -1.3675,2.37125 -1.36875,-2.37125 -1.3725,2.37125 -1.37,-2.37125 -1.36875,2.37125 -1.3725,-2.37125 -1.37,2.37125 -0.3825,-0.66 0,-1.00625 0.3825,0.66375 1.37,-2.37375 1.3725,2.37375 1.36875,-2.37375 1.37,2.37375 1.3725,-2.37375 1.36875,2.37375 1.3675,-2.37375 1.375,2.37375 1.37,-2.37375 1.37,2.37375 1.37,-2.37375 1.37125,2.37375 z m 0,-2.7225 0.38,-0.66125 0,1.00375 -0.38,0.66125 -1.37125,-2.37625 -1.37,2.37625 -1.37,-2.37625 -1.37,2.37625 -1.375,-2.37625 -1.3675,2.37625 -1.36875,-2.37625 -1.3725,2.37625 -1.37,-2.37625 -1.36875,2.37625 -1.3725,-2.37625 -1.37,2.37625 -0.3825,-0.66375 0,-1.00375 0.3825,0.66375 1.37,-2.37625 1.3725,2.37625 1.36875,-2.37625 1.37,2.37625 1.3725,-2.37625 1.36875,2.37625 1.3675,-2.37625 1.375,2.37625 1.37,-2.37625 1.37,2.37625 1.37,-2.37625 1.37125,2.37625 z m -1.37125,13.96625 1.15875,2.00375 c -0.5575,0.74125 -1.43,1.18 -2.35375,1.18 l -11.31375,0 c -0.9225,0 -1.79375,-0.43875 -2.35375,-1.17875 l 1.1575,-2.005 1.3725,2.3725 1.36875,-2.3725 1.37,2.3725 1.3725,-2.3725 1.36875,2.3725 1.3675,-2.3725 1.375,2.3725 1.37,-2.3725 1.37,2.3725 1.37,-2.3725 z m 183.04375,-35.75125 0.385,-0.665 0,1.005 -0.385,0.6625 -1.36625,-2.37375 -1.37,2.37375 -1.3725,-2.37375 -1.37,2.37375 -1.37,-2.37375 -1.37125,2.37375 -1.36875,-2.37375 -1.37125,2.37375 -1.3725,-2.37375 -1.36875,2.37375 -1.37,-2.37375 -1.3725,2.37375 -0.3825,-0.66 0,-1.00375 0.3825,0.66125 1.3725,-2.3725 1.37,2.3725 1.36875,-2.3725 1.3725,2.3725 1.37125,-2.3725 1.36875,2.3725 1.37125,-2.3725 1.37,2.3725 1.37,-2.3725 1.3725,2.3725 1.37,-2.3725 1.36625,2.3725 z m 0,5.445 0.385,-0.66375 0,1.005 -0.385,0.6625 -1.36625,-2.37375 -1.37,2.37375 -1.3725,-2.37375 -1.37,2.37375 -1.37,-2.37375 -1.37125,2.37375 -1.36875,-2.37375 -1.37125,2.375 -1.3725,-2.375 -1.36875,2.37375 -1.37,-2.37375 -1.3725,2.37375 -0.3825,-0.66125 0,-1.00375 0.3825,0.66125 1.3725,-2.3725 1.37,2.3725 1.36875,-2.3725 1.3725,2.3725 1.37125,-2.3725 1.36875,2.3725 1.37125,-2.3725 1.37,2.3725 1.37,-2.3725 1.3725,2.3725 1.37,-2.3725 1.36625,2.3725 z m 0,-8.16875 0.385,-0.66375 0,1.005 -0.385,0.6625 -1.36625,-2.37375 -1.37,2.37375 -1.3725,-2.37375 -1.37,2.37375 -1.37,-2.37375 -1.37125,2.37375 -1.36875,-2.37375 -1.37125,2.37375 -1.3725,-2.37375 -1.36875,2.37375 -1.37,-2.37375 -1.3725,2.37375 -0.3825,-0.66 0,-1.005 0.3825,0.66125 1.3725,-2.3725 1.37,2.3725 1.36875,-2.3725 1.3725,2.3725 1.37125,-2.3725 1.36875,2.3725 1.37125,-2.3725 1.37,2.3725 1.37,-2.3725 1.3725,2.3725 1.37,-2.3725 1.36625,2.3725 z m 0,5.44625 0.385,-0.66375 0,1.005 -0.385,0.66125 -1.36625,-2.3725 -1.37,2.3725 -1.3725,-2.3725 -1.37,2.3725 -1.37,-2.3725 -1.37125,2.3725 -1.36875,-2.3725 -1.37125,2.3725 -1.3725,-2.3725 -1.36875,2.3725 -1.37,-2.3725 -1.3725,2.3725 -0.3825,-0.66 0,-1.00375 0.3825,0.66125 1.3725,-2.37375 1.37,2.37375 1.36875,-2.37375 1.3725,2.37375 1.37125,-2.37375 1.36875,2.37375 1.37125,-2.37375 1.37,2.37375 1.37,-2.37375 1.3725,2.37375 1.37,-2.37375 1.36625,2.37375 z m -24.71125,4.83875 c -0.0213,1.92125 -0.0838,7.7675 -0.0838,9.4975 0,1.075 -0.59,1.7175 -1.5775,1.7175 -0.71,0 -1.4025,-0.3225 -1.40875,-0.32625 l -0.38625,-0.18125 c -8.18625,-3.84125 -10.57125,-5.005 -11.13,-5.3025 -1.47625,-0.78625 -1.355,-1.555 -1.13625,-2.9475 0.03,-0.1875 0.06,-0.3825 0.09,-0.595 0.22875,-1.5875 0.83125,-1.66 2.44125,-1.85625 0.59,-0.07 1.32,-0.15875 2.29,-0.33 2.72375,-0.49125 7.44125,-1.6575 8.82375,-2.0025 0.17125,-0.0438 0.33875,-0.0675 0.5,-0.0675 1.18125,0 1.55125,1.14875 1.58375,1.75625 0,0.0213 -0.002,0.2525 -0.006,0.6375 m -134.105,5.405 c -0.55375,0.295 -2.92,1.44875 -11.06125,5.27 l -0.4575,0.215 c -0.007,0.004 -0.7025,0.325 -1.4075,0.325 -0.9875,0 -1.5775,-0.6425 -1.5775,-1.7175 0,-1.73 -0.0625,-7.57625 -0.0838,-9.4975 -0.004,-0.385 -0.006,-0.61625 -0.006,-0.63 0.0325,-0.615 0.40375,-1.76375 1.5825,-1.76375 0.15875,0 0.3275,0.0225 0.50375,0.0675 0.97625,0.24375 5.98625,1.49125 8.82125,2.0025 0.96625,0.17125 1.695,0.26 2.2825,0.32875 1.61875,0.1975 2.22125,0.27 2.4475,1.8575 0.03,0.2125 0.0613,0.4075 0.0913,0.5875 0.21375,1.35125 0.34125,2.16625 -1.135,2.955 m 138.1625,-14.42625 c 0,-3.04375 0,-6.08875 -0.006,-9.13375 -0.009,-4.185 -1.68875,-7.815 -5.13625,-11.09375 -0.3775,-0.35875 -1.01625,-0.485 -1.69125,-0.61625 -0.18875,-0.0375 -0.38125,-0.0762 -0.57375,-0.11875 l -4.295,9.24625 c 0.24375,1.4425 0.18875,2.8175 -0.1625,4.0875 -2.81875,10.17125 -24.31,15.11625 -65.70125,15.11625 l -1.67875,0 c -41.38875,0 -62.87875,-4.945 -65.6975,-15.11625 -0.35375,-1.2725 -0.4075,-2.64875 -0.16375,-4.09 l -4.295,-9.24375 c -0.19,0.0425 -0.3825,0.0813 -0.5725,0.11875 -0.6775,0.1325 -1.31375,0.2575 -1.69,0.61625 -3.45,3.27875 -5.13,6.9075 -5.1375,11.09375 -0.006,3 -0.006,5.9975 -0.006,8.9975 -10e-4,4.58625 -0.002,9.33 -0.0225,13.99625 l -0.0487,6 c 0.0312,0.12125 0.0487,0.21875 0.0512,0.3125 0.045,1.57125 0.0363,3.17125 0.0275,4.71875 l -0.004,0.80375 c -0.004,1.07875 0.5275,1.72 1.62625,1.95875 0.185,0.04 0.3875,0.0588 0.66,0.0588 0.12125,0 0.24625,-0.004 0.37125,-0.007 0.125,-0.004 0.25125,-0.008 0.37625,-0.008 l 0.86625,0 c 10.815,-10.39375 40.735,-17.38 74.49875,-17.38875 33.7675,0.009 63.6875,6.995 74.49875,17.38875 l 0.86625,0 c 0.12625,0 0.2525,0.004 0.37875,0.008 0.12375,0.004 0.2475,0.007 0.37,0.007 0.2725,0 0.47625,-0.0187 0.66,-0.0588 1.0975,-0.2375 1.63,-0.88 1.62625,-1.96 l -0.004,-0.765 c -0.009,-1.56 -0.0175,-3.1725 0.03,-4.7575 0.001,-0.0913 0.015,-0.18875 0.0487,-0.31 l -0.0492,-6.00125 c -0.02,-4.62 -0.0213,-9.31875 -0.0213,-13.86 m -4.91125,8.4 c -10e-4,0.0475 -0.0925,8.01625 -0.0925,10.11875 0,0.7125 -0.285,0.85875 -0.715,0.85875 -0.43375,0 -0.90625,-0.18625 -1.04375,-0.245 l -0.2,-0.0937 c -3.01875,-1.41625 -10.16125,-4.77625 -11.27875,-5.37125 -0.93625,-0.49875 -0.9025,-0.70625 -0.68875,-2.06125 l 0.0163,-0.1075 c 0.025,-0.1525 0.0487,-0.3175 0.075,-0.495 0.135,-0.935 0.135,-0.935 1.6925,-1.1225 0.62,-0.0725 1.3625,-0.16375 2.33875,-0.33875 2.84375,-0.51 7.895,-1.7675 8.87875,-2.015 0.10875,-0.0263 0.2075,-0.04 0.29375,-0.04 0.66375,0 0.72125,0.8875 0.72375,0.9125 m -132.96625,3.21125 c 0.2125,1.35 0.2475,1.5575 -0.69,2.05625 -0.78625,0.41875 -4.76625,2.31375 -11.20625,5.33875 l -0.26375,0.12375 -0.0138,0.005 c -0.17375,0.0725 -0.62125,0.2425 -1.0375,0.2425 -0.43125,0 -0.7175,-0.14625 -0.7175,-0.85875 0,-2.0675 -0.0925,-10.0875 -0.0925,-10.105 0.006,-0.095 0.0838,-0.92625 0.725,-0.92625 0.0863,0 0.18375,0.0137 0.29375,0.04 1.39125,0.34875 6.14375,1.525 8.88,2.015 0.96625,0.17375 1.68375,0.2625 2.33625,0.33875 1.56,0.1875 1.56,0.1875 1.69375,1.1225 0.0312,0.22 0.0637,0.42 0.0925,0.6075 m -157.603753,2.3575 -1.75,0 0,4.0825 -2.95875,0 0,-19.59375 2.95875,0 0,4.08 1.75,0 c 3.16125,0 6.12,1.61375 6.12,5.715 0,4.1025 -2.95875,5.71625 -6.12,5.71625 m 5.50875,10.99125 -1.37,-2.195 c 6.326253,-1.25 11.732503,-6.59875 11.732503,-14.44375 0,-9.34625 -7.12875,-14.8625 -14.592503,-14.8625 l -3.02875,0 0,4.075 -2.95875,0 0,-2.31125 c 0,-0.96 -0.785,-1.74375 -1.74375,-1.74375 l -6.26375,0 c -0.96,0 -1.74375,0.78375 -1.74375,1.74375 l 0,43.585 c 0,0.96 0.78375,1.74375 1.74375,1.74375 l 6.26375,0 c 0.95875,0 1.74375,-0.78375 1.74375,-1.74375 l 0,-19.83375 2.95875,0 0,4.075 3.02875,0 c 0.62625,0 1.2525,-0.045 1.8725,-0.12375 l 1.40625,2.25625 c -1.10875,0.2225 -2.24,0.3475 -3.375,0.3475 l -1.80875,0 7.588753,15.0225 10.9225,0 -8.61125,-17.0525 c -1.1925,0.63 -2.46,1.12 -3.765003,1.46125 m 36.903753,5.92 0,4.3275 -2.9575,0 0,-4.3275 c -7.0725,-0.74125 -12.60375,-6.735 -12.60375,-14.0025 0,-7.265 5.53125,-13.2575 12.60375,-14.0025 l 0,-4.4175 2.9575,0 0,4.4175 c 7.0725,0.745 12.60375,6.7375 12.60375,14.0025 0,7.2675 -5.53125,13.25875 -12.60375,14.0025 m 0,-37.55625 0,4.21 -2.9575,0 0,-4.21 c -12.35245,0.7637 -22.13745,11.0087 -22.13745,23.5537 0,12.545 9.785,22.79125 22.1375,23.5575 l 0,-4.305 2.9575,0 0,4.305 c 12.35375,-0.76625 22.1375,-11.0125 22.1375,-23.5575 0,-12.545 -9.78375,-22.79 -22.1375,-23.55375 m -47.236253,-44.996247 2.9575,0 0,4.08 1.74875,0 c 3.1625,0 6.12125,1.61375 6.12125,5.7175 0,4.1025 -2.95875,5.7175 -6.12125,5.7175 l -1.74875,0 0,4.078747 -2.9575,0 0,-19.593747 z m -8.0075,42.077497 6.265,0 c 0.9575,0 1.7425,-0.78375 1.7425,-1.74375 l 0,-19.8175 2.9575,0 0,4.0775 3.0275,0 c 7.466253,0 14.595003,-5.71875 14.595003,-14.731247 0,-9.34625 -7.12875,-14.86125 -14.595003,-14.86125 l -3.0275,0 0,4.075 -2.9575,0 0,-2.33125 c 0,-0.96 -0.785,-1.74375 -1.7425,-1.74375 l -6.265,0 c -0.95875,0 -1.74375,0.78375 -1.74375,1.74375 l 0,43.588747 c 0,0.96 0.785,1.74375 1.74375,1.74375 m 90.091253,4.8175 0,43.585 c 0,0.96 -0.78625,1.74375 -1.74375,1.74375 l -6.26375,0 c -0.96,0 -1.74375,-0.78375 -1.74375,-1.74375 l 0,-43.585 c 0,-0.96 0.78375,-1.74375 1.74375,-1.74375 l 6.26375,0 c 0.9575,0 1.74375,0.78375 1.74375,1.74375 m -94.793753,-50.151247 0,7.48625 0,23.522497 c 0,8.13875 -6.5225,14.32375 -14.45875,14.32375 l -1.36875,0 c -0.58,-0.003 -1.15125,-0.035 -1.71375,-0.10375 l 0,-4.14625 -2.9575,0 0,3.4925 c -5.65875,-1.8875 -9.76375,-7.11125 -9.76375,-13.56625 l 0,-20.448747 0.0125,0 0,-10.56 c 0,-0.9575 0.785,-1.74375 1.74375,-1.74375 l 6.26375,0 c 0.95875,0 1.74375,0.78625 1.74375,1.74375 l 0,25.136247 c 0,0.0687 -0.005,0.1375 -0.0137,0.20375 l 0,5.87125 c 0,0.10375 0.009,0.205 0.0137,0.30625 l 0,8.6425 2.9575,0 0,-4.235 c 0.53,0.21 1.11125,0.33 1.7375,0.33 l 0,0.004 1.345,0 0,-0.004 c 2.75625,0 4.7075,-2.21875 4.7075,-5.04375 l 0,-23.724997 0,-7.48625 c 0,-0.9575 0.785,-1.74375 1.74375,-1.74375 l 6.26375,0 c 0.96,0 1.74375,0.78625 1.74375,1.74375 M 194.06291,159.64095 c 0,2.62125 -2.08625,5.04125 -4.70875,5.04125 l -3.09375,0 0,3.73625 -2.95875,0 0,-36.75 2.95875,0 0,4.1 3.09375,0 c 2.6225,0 4.70875,2.42 4.70875,5.0425 l 0,18.83 z m -4.70875,-32.95125 -3.09375,0 0,4.055 -2.95875,0 0,-2.31125 c 0,-0.96 -0.78375,-1.74375 -1.7425,-1.74375 l -6.26375,0 c -0.95875,0 -1.7425,0.78375 -1.7425,1.74375 l 0,43.585 c 0,0.96 0.78375,1.74375 1.7425,1.74375 l 6.26375,0 c 0.95875,0 1.7425,-0.78375 1.7425,-1.74375 l 0,-2.6775 2.95875,0 0,4.42125 3.09375,0 c 7.93625,0 14.765,-6.12 14.765,-14.12125 l 0,-18.83 c 0,-7.935 -6.82875,-14.12125 -14.765,-14.12125 M 66.047957,159.64095 c 0,2.62125 -2.085,5.04125 -4.7075,5.04125 l -3.08125,0 0,3.73625 -2.97125,0 0,-36.75 2.97125,0 0,4.1 3.08125,0 c 2.6225,0 4.7075,2.42 4.7075,5.0425 l 0,18.83 z m -4.7075,-32.95125 -3.08125,0 0,4.055 -2.97125,0 0,-2.31125 c 0,-0.96 -0.785,-1.74375 -1.74375,-1.74375 l -6.26375,0 c -0.95875,0 -1.74375,0.78375 -1.74375,1.74375 l 0,43.585 c 0,0.96 0.785,1.74375 1.74375,1.74375 l 6.26375,0 c 0.95875,0 1.74375,-0.78375 1.74375,-1.74375 l 0,-2.6775 2.97125,0 0,4.42125 3.08125,0 c 7.935,0 14.45875,-6.12 14.45875,-14.12125 l 0,-18.83 c 0,-7.935 -6.52375,-14.12125 -14.45875,-14.12125"
       inkscape:connector-curvature="0" />
  </g>
</svg>
