<svg xmlns="http://www.w3.org/2000/svg" width="293" height="194" version="1"><path d="M291.287 55.06c-13.78-67.176-143.762-71.43-227.55-20.252v5.652C147.416-2.732 266.15-2.456 276.954 59.422c3.64 20.5-7.826 41.818-28.386 54.086v16.053c24.75-9.08 50.05-38.472 42.72-74.5m-152.36 117.61c-57.824 5.352-118.074-3.072-126.51-48.433-4.187-22.337 6.01-46.044 19.46-60.753v-7.876C7.624 76.958-5.55 103.96 2.058 135.844c9.7 40.916 61.405 64.075 140.342 56.364 31.254-3.017 72.156-13.116 100.542-28.782v-22.258c-25.797 15.45-68.463 28.212-104.016 31.503z" fill="#127cc1"/><path d="M238.31 45.348h-15.157v67.812c0 7.964 3.805 14.89 15.158 15.99M57.73 70.13H42.57v44.292c0 7.967 3.805 14.892 15.16 15.99M42.57 47.408h15.16v14.426H42.57zM148.57 129.7c-12.29 0-17.47-8.575-17.47-17.037V53.838h14.992V70.13h11.354v12.2h-11.354v29.426c0 3.46 1.654 5.36 5.235 5.36h6.12v12.583h-8.876M188.425 81.59c-5.125 0-9.093 2.663-10.747 6.263-.992 2.17-1.323 3.82-1.487 6.486H199.4c-.332-6.514-3.255-12.75-10.973-12.75m-12.234 23.024c0 7.72 4.85 13.406 13.338 13.406 6.672 0 9.98-1.868 13.837-5.684l9.26 8.93c-5.952 5.877-12.18 9.45-23.205 9.45-14.386 0-28.168-7.886-28.168-30.857 0-19.645 12.016-30.745 27.837-30.745 16.04 0 25.244 12.996 25.244 30.06v5.44H176.19M98.576 82.33c4.41 0 6.23 2.17 6.23 5.715v41.736h15.048V87.99c0-8.49-4.52-17.86-17.694-17.86H71.125v59.65H86.12V82.33" fill="#127cc1"/><text style="text-align:start;line-height:125%" x="244.261" y="55.858" transform="scale(1.0108 .98932)" font-size="14.035" fill="#127cc1" font-family="Arial"><tspan x="244.261" y="55.858">®</tspan></text></svg>