<svg xmlns="http://www.w3.org/2000/svg" width="362.42" height="137.018" viewBox="0 0 362.42 137.018"><path d="M186.118 68.51c0 2.97-2.415 5.376-5.396 5.376-2.977 0-5.39-2.406-5.39-5.377 0-2.972 2.413-5.38 5.39-5.38 2.98 0 5.396 2.408 5.396 5.38zm54.045-53.575h-16.506c10.863 8.657 19.073 20.476 23.11 34.12h11.65c-1.038-4.135-2.363-8.15-4.018-12h78.63l-21.163 26.68H260.7c-.243-4.094-.848-8.09-1.686-12H247.43c1.356 5.378 2.15 10.98 2.15 16.773 0 5.87-.81 11.537-2.2 16.97h11.567c.805-3.71 1.417-7.493 1.69-11.377h43.002l-21.165 26.69h-28.45c1.79-4.043 3.243-8.263 4.348-12.624h-11.66c-8.084 27.02-32.41 47.04-61.68 48.85v-12.52h-8.624v12.52c-29.273-1.806-53.597-21.83-61.684-48.85h-10.69c1.105 4.36 2.562 8.58 4.35 12.623H79.94L58.777 74.1h43.005c.27 3.884.88 7.667 1.688 11.378h10.597c-1.39-5.434-2.2-11.1-2.2-16.97 0-5.796.793-11.397 2.15-16.773h-10.614c-.836 3.91-1.443 7.904-1.686 12H50.552L29.387 37.054h78.63c-1.652 3.85-2.978 7.865-4.013 12h10.68c4.034-13.643 12.245-25.46 23.105-34.12h-15.533c-3.292 3.632-6.26 7.56-8.847 11.75H21.166L0 0h140.416c-5.707 3.426-10.937 7.558-15.598 12.247h16.54C151.417 5.243 163.413.803 176.413 0v12.247h8.625V0c12.998.807 24.992 5.243 35.05 12.247H237.6c-4.664-4.69-9.89-8.82-15.598-12.247H362.42l-21.165 26.685H249.01c-2.587-4.19-5.555-8.12-8.847-11.75zM221.786 68.51c0-21.13-16.127-38.562-36.747-40.722V14.935h-8.626v12.853c-20.623 2.16-36.747 19.592-36.747 40.72 0 21.13 16.124 38.568 36.747 40.723v12.58h8.625v-12.58c20.618-2.154 36.746-19.59 36.746-40.72z"/></svg>