<?xml version="1.0" encoding="utf-8"?>
<!-- Generator: Adobe Illustrator 16.0.4, SVG Export Plug-In . SVG Version: 6.00 Build 0)  -->
<!DOCTYPE svg PUBLIC "-//W3C//DTD SVG 1.1//EN" "http://www.w3.org/Graphics/SVG/1.1/DTD/svg11.dtd">
<svg version="1.1" id="Layer_1" xmlns="http://www.w3.org/2000/svg" xmlns:xlink="http://www.w3.org/1999/xlink" x="0px" y="0px"
	 width="362.42px" height="137.018px" viewBox="0 0 362.42 137.018" enable-background="new 0 0 362.42 137.018"
	 xml:space="preserve">
<path d="M186.118,68.509c0,2.971-2.415,5.377-5.396,5.377c-2.977,0-5.39-2.406-5.39-5.377c0-2.971,2.413-5.379,5.39-5.379
	C183.703,63.129,186.118,65.538,186.118,68.509z M240.163,14.935h-16.506c10.863,8.657,19.073,20.476,23.111,34.119h11.649
	c-1.038-4.134-2.363-8.15-4.018-12h78.63l-21.162,26.682h-51.167c-0.243-4.095-0.848-8.091-1.686-12h-11.583
	c1.355,5.377,2.149,10.978,2.149,16.772c0,5.87-0.811,11.537-2.2,16.971h11.567c0.805-3.71,1.417-7.494,1.689-11.378h43.003
	l-21.164,26.688h-28.451c1.792-4.042,3.244-8.262,4.349-12.623h-11.659c-8.085,27.021-32.411,47.04-61.68,48.851v-12.52h-8.625
	v12.52c-29.272-1.807-53.596-21.83-61.683-48.851h-10.69c1.105,4.361,2.562,8.581,4.351,12.623H79.94L58.777,74.102h43.005
	c0.269,3.884,0.88,7.667,1.688,11.378h10.597c-1.389-5.434-2.199-11.101-2.199-16.971c0-5.795,0.792-11.396,2.15-16.772h-10.615
	c-0.836,3.909-1.443,7.904-1.686,12H50.552L29.387,37.054h78.63c-1.652,3.85-2.978,7.865-4.013,12h10.679
	c4.035-13.643,12.246-25.461,23.106-34.119h-15.532c-3.292,3.631-6.261,7.56-8.847,11.75H21.166L0,0h140.416
	c-5.707,3.426-10.937,7.558-15.598,12.247h16.539C151.419,5.243,163.414,0.803,176.414,0v12.247h8.625V0
	c12.999,0.807,24.993,5.243,35.05,12.247h17.513C232.938,7.558,227.711,3.426,222.004,0H362.42l-21.165,26.685h-92.246
	C246.423,22.495,243.455,18.566,240.163,14.935z M221.786,68.509c0-21.129-16.127-38.561-36.747-40.721V14.935h-8.625v12.853
	c-20.623,2.161-36.747,19.592-36.747,40.721c0,21.13,16.124,38.567,36.747,40.722v12.58h8.625v-12.58
	C205.658,107.076,221.786,89.639,221.786,68.509z"/>
</svg>
